<?xml version="1.0" standalone="no"?>
<svg viewBox="0 0 200 200" xmlns="http://www.w3.org/2000/svg">
  <path fill="white" d="M40.3,-73.9C50.5,-63.8,56.2,-49.7,64.5,-36.7C72.8,-23.8,83.9,-11.9,85.7,1C87.5,14,80.1,27.9,70.3,38.4C60.5,48.8,48.3,55.8,36.2,63.7C24.1,71.6,12.1,80.4,-0.3,80.9C-12.7,81.5,-25.4,73.7,-38,66.1C-50.7,58.5,-63.3,51.2,-70.4,40.2C-77.5,29.2,-79.1,14.6,-79.2,-0.1C-79.3,-14.8,-78,-29.5,-71.8,-42.1C-65.7,-54.8,-54.7,-65.3,-41.9,-73.9C-29.2,-82.6,-14.6,-89.5,0.2,-89.9C15,-90.2,30,-84,40.3,-73.9Z" transform="translate(100 100)" />
</svg>
