<?xml version="1.0" encoding="utf-8"?>
<!-- Generator: Adobe Illustrator 25.2.3, SVG Export Plug-In . SVG Version: 6.00 Build 0)  -->
<svg version="1.1" xmlns="http://www.w3.org/2000/svg" xmlns:xlink="http://www.w3.org/1999/xlink" x="0px" y="0px"
	 viewBox="0 0 3710 3710" style="enable-background:new 0 0 3710 3710;" xml:space="preserve">
<style type="text/css">
	.st0{fill:url(#SVGID_1_);}
	.st1{fill:#91B3FA;}
	.st2{fill:#FFFFFF;}
	.st3{fill:#BDD0FB;}
	.st4{fill:url(#SVGID_2_);}
	.st5{fill:url(#SVGID_3_);}
	.st6{fill:url(#SVGID_4_);}
	.st7{opacity:0.44;fill:#FFFFFF;}
	.st8{opacity:0.43;fill:#FFFFFF;}
	.st9{opacity:0.46;fill:#FFFFFF;}
	.st10{opacity:0.38;fill:#FFFFFF;}
	.st11{opacity:0.42;fill:#FFFFFF;}
	.st12{opacity:0.58;fill:#FFFFFF;}
	.st13{opacity:0.28;fill:#FFFFFF;}
	.st14{opacity:0.47;fill:#FFFFFF;}
	.st15{fill:url(#SVGID_5_);}
	.st16{opacity:0.69;fill:#FFFFFF;}
	.st17{fill:url(#SVGID_6_);}
	.st18{fill:url(#SVGID_7_);}
	.st19{fill:url(#SVGID_8_);}
	.st20{fill:url(#SVGID_9_);}
	.st21{fill:url(#SVGID_10_);}
	.st22{fill:url(#SVGID_11_);}
	.st23{fill:url(#SVGID_12_);}
	.st24{fill:url(#SVGID_13_);}
	.st25{fill:url(#SVGID_14_);}
	.st26{fill:url(#SVGID_15_);}
	.st27{fill:url(#SVGID_16_);}
	.st28{fill:url(#SVGID_17_);}
	.st29{fill:url(#SVGID_18_);}
	.st30{fill:url(#SVGID_19_);}
	.st31{fill:url(#SVGID_20_);}
	.st32{fill:url(#SVGID_21_);}
	.st33{opacity:0.76;fill:#FFFFFF;}
	.st34{fill:url(#SVGID_22_);}
	.st35{fill:#7D97F4;}
	.st36{fill:url(#SVGID_23_);}
	.st37{fill:url(#SVGID_24_);}
	.st38{fill:url(#SVGID_25_);}
	.st39{fill:url(#SVGID_26_);}
	.st40{fill:url(#SVGID_27_);}
	.st41{fill:url(#SVGID_28_);}
	.st42{fill:url(#SVGID_29_);}
	.st43{fill:url(#SVGID_30_);}
	.st44{fill:url(#SVGID_31_);}
	.st45{fill:url(#SVGID_32_);}
	.st46{fill:url(#SVGID_33_);}
	.st47{fill:url(#SVGID_34_);}
	.st48{fill:url(#SVGID_35_);}
	.st49{fill:url(#SVGID_36_);}
	.st50{fill:url(#SVGID_37_);}
	.st51{opacity:0.64;}
	.st52{fill:url(#SVGID_38_);}
	.st53{fill:url(#SVGID_39_);}
	.st54{fill:url(#SVGID_40_);}
	.st55{fill:url(#SVGID_41_);}
	.st56{fill:url(#SVGID_42_);}
	.st57{fill:url(#SVGID_43_);}
	.st58{fill:url(#SVGID_44_);}
	.st59{fill:url(#SVGID_45_);}
	.st60{fill:url(#SVGID_46_);}
	.st61{fill:url(#SVGID_47_);}
	.st62{fill:url(#SVGID_48_);}
	.st63{fill:url(#SVGID_49_);}
	.st64{fill:url(#SVGID_50_);}
	.st65{fill:url(#SVGID_51_);}
</style>
<g id="Background">
</g>
<g id="Illustration">
	<g>
		<linearGradient id="SVGID_1_" gradientUnits="userSpaceOnUse" x1="3982.22" y1="4576.3599" x2="946.2957" y2="805.9322">
			<stop  offset="0" style="stop-color:#DAE3FE"/>
			<stop  offset="1" style="stop-color:#E9EFFD"/>
		</linearGradient>
		<path class="st0" d="M3147.02,3089.44c-69.73,73.41-135.72,120.76-187.85,158.16c-612.79,439.68-1337.88,311.52-1491.98,280.22
			c-227.56-46.22-667.43-135.56-985.45-509.54C0.61,2452.47,75.53,1561.06,448.73,972.63C516.99,865,877.59,267.61,1610.49,171.8
			c443.54-57.98,960.57,58.96,1334.99,372.65C3731.41,1202.91,3675.46,2533.11,3147.02,3089.44z"/>
		<g>
			<path class="st1" d="M142.77,125.4c-3.23-13.75,16.12-22.9,27.96-13.29c120.31,97.56,409.37,389.7,337.33,900.24
				c-90.39,640.55,64.14,874.28,256.49,1016.85c0,0-264.16-67.05-430.35-304.22C-73.84,1142.68,200.22,369.95,142.77,125.4z"/>
			<path class="st2" d="M234.33,325.47c15.05,71.31,28.46,142.84,38.83,214.69c10.8,71.79,19.08,143.83,24.74,215.99
				c5.34,72.17,9.12,144.42,9.33,216.69c0.59,72.27-2.41,144.49-5.72,216.98c-2.84,72.47-6.18,145.46-0.87,218.97
				c5.22,73.36,20.66,147.36,51.3,216.73c7.66,17.29,15.71,34.52,24.87,51.18c8.8,16.81,18.46,33.28,28.46,49.6
				c20.19,32.56,42.92,64.02,68.24,93.88c50.84,59.62,112.15,112.5,179.7,157.26c7.11,4.71,17.29,3.55,22.75-2.59
				c5.36-6.03,4.16-14.62-2.62-19.39l-0.05-0.03c-16.07-11.29-31.97-22.72-47.23-34.73c-7.74-5.9-15.16-12.08-22.72-18.14
				c-7.28-6.3-14.84-12.36-21.89-18.84c-28.68-25.53-55.25-52.76-79.36-81.56c-48.49-57.33-87.31-121.21-116.71-187.43
				c-14.28-33.27-25.69-67.38-34.02-102.14c-8.3-34.77-13.52-70.14-16.41-105.79c-5.78-71.35-3.17-143.62-0.93-216.1
				c2.13-72.5,3.69-145.37,1.78-218.18c-0.84-36.4-2.44-72.79-4.8-109.13c-1.06-18.18-2.52-36.33-3.94-54.49
				c-1.63-18.14-3.37-36.28-5.28-54.39c-7.81-72.46-18.18-144.68-31.17-216.51c-13.39-71.78-28.99-143.23-47.74-214.04
				c-0.54-2.02-2.87-3.29-5.21-2.83C235.36,321.58,233.91,323.51,234.33,325.47z"/>
		</g>
		<g>
			<g>
				<path class="st3" d="M454.42,1707.08c-14.75,15.65-40.69,11.15-49.57-8.44c-48.96-108.1-159.77-426.25,23.23-792.78
					c154.53-309.52,208.91-492.03,227.85-576.6c4.01-17.88,28.51-20.26,35.91-3.49C773.46,510.75,988.95,1139.95,454.42,1707.08z"/>
				<path class="st2" d="M427.63,1695.67c-0.52,0.09-1.06,0.14-1.62,0.13c-4.64-0.07-8.34-3.89-8.27-8.52
					c0.08-5.26,10.31-530.69,205.73-970.75c1.88-4.23,6.84-6.15,11.08-4.27c4.24,1.88,6.15,6.84,4.27,11.08
					c-194,436.86-204.21,958.97-204.29,964.19C434.47,1691.62,431.51,1694.98,427.63,1695.67z"/>
			</g>
		</g>
		<g>
			<linearGradient id="SVGID_2_" gradientUnits="userSpaceOnUse" x1="1958.4303" y1="2602.6401" x2="1958.4303" y2="4114.1138">
				<stop  offset="0" style="stop-color:#09005D"/>
				<stop  offset="1" style="stop-color:#1A0F91"/>
			</linearGradient>
			<polygon class="st4" points="1599.53,2670.12 1524.78,3340.57 2392.08,3340.57 2279.12,2670.12 			"/>
			<linearGradient id="SVGID_3_" gradientUnits="userSpaceOnUse" x1="1853.6448" y1="175.7028" x2="1878.8381" y2="2770.394">
				<stop  offset="0" style="stop-color:#09005D"/>
				<stop  offset="1" style="stop-color:#1A0F91"/>
			</linearGradient>
			<path class="st5" d="M142.61,1018.28v1535.5c0,126.32,100.66,229.61,226.93,232.87c560.84,14.46,2522.39,49.53,3056.27,41.66
				c91.76-1.35,166.09-74.78,168.74-166.51c10.29-356.72,27.01-1214.51-34.86-1612.74c-13.03-83.86-83.82-146.58-168.65-149.29
				c-469.91-15.03-2549.29-62.77-3082.92-50.78C216.1,851.04,142.61,926.22,142.61,1018.28z"/>
			<path class="st1" d="M238.96,1010.8v1458.83c0,73.75,59.2,133.84,132.94,134.95l2977.11,36.78
				c73.11,1.09,133.04-57.73,133.31-130.84l4.98-1445.8c0.2-52.28-41.46-95.12-93.72-96.39l-3048-61.58
				C287.12,905.33,238.96,952.33,238.96,1010.8z"/>
			<path class="st1" d="M3504.73,2701.59c-0.02,0-0.05,0-0.08,0l-3265.77-55.64c-2.52-0.04-4.54-2.12-4.49-4.65
				c0.04-2.53,2.05-4.46,4.65-4.5l3265.77,55.64c2.52,0.04,4.54,2.13,4.49,4.65C3509.26,2699.59,3507.22,2701.59,3504.73,2701.59z"
				/>
			<linearGradient id="SVGID_4_" gradientUnits="userSpaceOnUse" x1="2049.3696" y1="2173.3689" x2="1940.2091" y2="3483.3083">
				<stop  offset="0" style="stop-color:#09005D"/>
				<stop  offset="1" style="stop-color:#1A0F91"/>
			</linearGradient>
			<path class="st6" d="M2578.9,3477.74H1309.54c-34.48,0-60.38-24.55-53.71-50.92l16.29-64.42c4.9-19.37,26.21-33.59,51.52-34.38
				l1223.71-38.18c26.45-0.82,49.86,13.21,55.62,33.35l29.36,102.6C2639.96,3452.44,2613.94,3477.74,2578.9,3477.74z"/>
			<path class="st1" d="M1992.86,3345.9c-2.49,0-4.53-2-4.57-4.5c-0.04-2.53,1.98-4.6,4.5-4.64l52.44-0.76h0.07
				c2.49,0,4.53,2,4.57,4.5c0.04,2.53-1.98,4.6-4.5,4.64l-52.44,0.76C1992.9,3345.9,1992.88,3345.9,1992.86,3345.9z"/>
			<path class="st1" d="M1302.82,3442.66c-0.24,0-0.48-0.02-0.73-0.06c-2.49-0.4-4.19-2.74-3.79-5.23l7.48-46.85
				c4.05-25.39,25.65-44.08,51.35-44.46l556.18-8.13c2.41-0.09,4.6,1.98,4.64,4.5c0.04,2.53-1.98,4.6-4.5,4.64l-556.18,8.13
				c-21.25,0.31-39.11,15.77-42.46,36.76l-7.48,46.85C1306.97,3441.06,1305.03,3442.66,1302.82,3442.66z"/>
		</g>
		<g>
			<path class="st7" d="M2838.84,1460.5h-330.92c-20.77,0-37.61-16.84-37.61-37.61c0-20.77,16.84-37.61,37.61-37.61h330.92
				c20.77,0,37.61,16.84,37.61,37.61C2876.45,1443.67,2859.61,1460.5,2838.84,1460.5z"/>
			<path class="st8" d="M2960.64,1401.32h357.17c22.42,0,40.59,66.8,40.59,149.21v878.66c0,82.41-18.17,149.21-40.59,149.21h-357.17
				c-22.42,0-40.59-66.8-40.59-149.21v-878.66C2920.04,1468.12,2938.22,1401.32,2960.64,1401.32z"/>
			<path class="st9" d="M2507.93,1502.29h330.92c20.77,0,37.61,16.84,37.61,37.61v221.47c0,20.77-16.84,37.61-37.61,37.61h-330.92
				c-20.77,0-37.61-16.84-37.61-37.61V1539.9C2470.32,1519.13,2487.16,1502.29,2507.93,1502.29z"/>
			<path class="st10" d="M2507.93,1865.38h330.92c20.77,0,37.61,40.58,37.61,90.64v533.78c0,50.06-16.84,90.64-37.61,90.64h-330.92
				c-20.77,0-37.61-40.58-37.61-90.64v-533.78C2470.32,1905.97,2487.16,1865.38,2507.93,1865.38z"/>
			<path class="st11" d="M3354.25,1338.74H389.82c-34.31,0-62.13-27.82-62.13-62.13v-247.25c0-34.93,28.78-62.99,63.7-62.11
				l2964.43,74.96c33.69,0.85,60.56,28.41,60.56,62.11v172.29C3416.39,1310.92,3388.57,1338.74,3354.25,1338.74z"/>
			<path class="st12" d="M2371.58,2355.31H1354.65c-20.17,0-36.52-16.35-36.52-36.52v-870.05c0-20.17,16.35-36.52,36.52-36.52
				h1016.93c20.17,0,36.52,16.35,36.52,36.52v870.05C2408.1,2338.96,2391.75,2355.31,2371.58,2355.31z"/>
			<path class="st13" d="M2405.28,2596.05l-2053.8-17.28c-24.9-0.21-44.98-20.45-44.98-45.36v-72.46
				c0-34.64,28.08-62.72,62.72-62.72H2402.5c13.37,0,24.21,10.84,24.21,24.21v152.35
				C2426.71,2586.6,2417.09,2596.15,2405.28,2596.05z"/>
			<path class="st14" d="M1220.37,2333.56H340.91c-19,0-34.41-15.4-34.41-34.41v-879.46c0-19,15.4-34.41,34.41-34.41h879.46
				c19,0,34.41,15.4,34.41,34.41v879.46C1254.77,2318.15,1239.37,2333.56,1220.37,2333.56z"/>
		</g>
		<g>
			<g>
				<g>
					<linearGradient id="SVGID_5_" gradientUnits="userSpaceOnUse" x1="1753.7305" y1="2290.033" x2="2853.7483" y2="1517.5011">
						<stop  offset="0" style="stop-color:#FF928E"/>
						<stop  offset="1" style="stop-color:#FE7062"/>
					</linearGradient>
					<path class="st15" d="M1845.34,1483.41l971.35-8.71c19.05-0.17,34.55,15.28,34.44,34.33l-4.25,745.38
						c-0.11,19.17-15.95,34.5-35.12,33.93c-175.63-5.24-955.36-28.34-989.78-26.9c-34.01,1.42-15.53-597.35-10.46-745.08
						C1812.16,1498.09,1827.07,1483.58,1845.34,1483.41z"/>
					<path class="st16" d="M2812.81,2260.24l-0.2,0c-139.52-4.17-842.06-25.03-971.57-26.85l-1.73-0.02l-0.3-1.71
						c-12.18-68.69-11.93-349.09,0.62-714.33c0.11-3.22,2.73-5.77,5.97-5.8l971.35-8.71c2.13,0,3.53,0.97,4.33,1.78
						c1.15,1.15,1.76,2.63,1.75,4.27l-4.25,745.38C2818.76,2257.55,2816.08,2260.24,2812.81,2260.24z M1842.85,2229.21
						c133.96,1.98,830.98,22.68,969.89,26.83l0.14,0c0.91,0,1.7-0.82,1.71-1.82l4.25-745.38c0-0.52-0.16-0.92-0.53-1.29
						c-0.36-0.37-0.8-0.54-1.33-0.54l-971.33,8.71c-0.98,0.01-1.78,0.77-1.81,1.74C1831.38,1879.48,1831.02,2157.94,1842.85,2229.21
						z"/>
				</g>
				<path class="st2" d="M1962.57,2164.41h636.75c19.82,0,32.14-21.54,22.09-38.62l-252.08-428.54
					c-10.51-17.87-36.8-16.51-45.41,2.35l-121.72,266.71c-7.23,15.83-27.8,20.01-40.63,8.25l-49.24-45.13
					c-11.44-10.49-29.5-8.48-38.36,4.26l-132.44,190.46C1929.71,2141.14,1941.87,2164.41,1962.57,2164.41z"/>
				
					<ellipse transform="matrix(0.9239 -0.3827 0.3827 0.9239 -447.353 1119.6169)" class="st2" cx="2590.67" cy="1684.3" rx="91.54" ry="91.54"/>
			</g>
			<g>
				<g>
					
						<linearGradient id="SVGID_6_" gradientUnits="userSpaceOnUse" x1="3109.1431" y1="2723.4639" x2="3415.3105" y2="1979.3854" gradientTransform="matrix(0.9998 -0.0189 0.0189 0.9998 -59.5478 19.4772)">
						<stop  offset="0" style="stop-color:#09005D"/>
						<stop  offset="1" style="stop-color:#1A0F91"/>
					</linearGradient>
					<path class="st17" d="M3424.16,2376.54c-22.35-82.67-91.41-150.58-168.37-167.75c-14.14-3.15-22.33-17.56-19.01-31.66
						c0.02-0.1,0.05-0.2,0.07-0.29c11.15-48.08-19.67-86.38-66.15-97.16c-46.48-10.78-91.01,10.05-102.16,58.12
						c-7.53,32.45,2.11,68.94,23.45,92.58c8.79,9.74,9.5,24.28,0.98,34.26c-46.9,54.94-65.97,138.79-45.69,213.8
						c29.87,110.48,133.75,159.83,237.82,131.69S3454.03,2487.02,3424.16,2376.54z"/>
					<path class="st1" d="M3391.8,2481.97l-2.02-1.42c18.63-26.44,21.02-64.61,6.24-99.61c-11.74-27.8-32.75-53.22-66.11-79.99
						c-12.43-9.98-25.61-19.45-38.36-28.61c-15.35-11.03-31.22-22.43-45.93-34.82c-13.23-11.15-27.15-24.99-30.07-43.09
						c-1.46-9.02-0.1-18.64,1.22-27.93c2.06-14.55,4.01-28.29-4.52-38.81l1.92-1.55c9.2,11.36,7.09,26.28,5.05,40.71
						c-1.29,9.11-2.63,18.53-1.23,27.19c2.79,17.3,16.34,30.73,29.23,41.59c14.64,12.33,30.47,23.7,45.78,34.7
						c12.77,9.18,25.99,18.66,38.47,28.68c33.7,27.05,54.94,52.77,66.84,80.96C3413.41,2415.76,3410.91,2454.84,3391.8,2481.97z"/>
					<path class="st1" d="M3342.32,2497.93l-2.32-0.84c12.68-35.06,8.97-78.14-10.18-118.21c-18.98-39.71-50.01-72.09-74.93-95.86
						l1.7-1.79c25.07,23.91,56.3,56.51,75.45,96.58C3351.47,2418.47,3355.22,2462.25,3342.32,2497.93z"/>
				</g>
				<linearGradient id="SVGID_7_" gradientUnits="userSpaceOnUse" x1="2826.8044" y1="1937.0775" x2="3090.4001" y2="2532.2598">
					<stop  offset="0" style="stop-color:#FEBBBA"/>
					<stop  offset="1" style="stop-color:#FF928E"/>
				</linearGradient>
				<path class="st18" d="M2843.25,2044.41l-0.86-28.55l29.84-59.26c5.46-10.84,5.5-23.62,0.11-34.49l-33.81-68.26
					c0,0-19.52,148.16-24.66,160.47c-5.14,12.31,13.93,34.44,13.93,34.44L2843.25,2044.41z"/>
				<linearGradient id="SVGID_8_" gradientUnits="userSpaceOnUse" x1="2831.4878" y1="1935.0033" x2="3095.0833" y2="2530.1855">
					<stop  offset="0" style="stop-color:#FEBBBA"/>
					<stop  offset="1" style="stop-color:#FF928E"/>
				</linearGradient>
				<path class="st19" d="M2842.39,2015.86c0,0,90.77,247.45,245.44,324.79c0,0-51.48,83.99-78.34,89.09
					c0,0-165.22-211.47-182.07-384.72L2842.39,2015.86z"/>
				<linearGradient id="SVGID_9_" gradientUnits="userSpaceOnUse" x1="3488.9011" y1="3138.7878" x2="3507.0283" y2="3585.937">
					<stop  offset="0" style="stop-color:#4F52FF"/>
					<stop  offset="1" style="stop-color:#4042E2"/>
				</linearGradient>
				<path class="st20" d="M3464.41,3504.35l4.57,37.53c4.75,17.84,27.71,62.77,57.18,59.85c18.13-1.8,20.31-54.77,17.79-62.72
					c-4.6-14.49-13.03-36.23-25.17-49.03h-41.63C3469.45,3489.98,3463.49,3496.71,3464.41,3504.35z"/>
				<linearGradient id="SVGID_10_" gradientUnits="userSpaceOnUse" x1="3125.1951" y1="3840.0847" x2="3240.6897" y2="2490.2402">
					<stop  offset="0" style="stop-color:#FEBBBA"/>
					<stop  offset="1" style="stop-color:#FF928E"/>
				</linearGradient>
				<path class="st21" d="M3138.36,3064.74l-7.03,41.33c0,0,23.53,238.34,27.72,333.68c0.66,14.95-3.21,29.72-11.06,42.46
					l-40.91,66.44l103.98-61.36l2.07-12.69l-17.02-23.4l22.3-267c1.31-15.69-1.93-31.42-9.32-45.31l-21.51-40.41L3138.36,3064.74z"
					/>
				<linearGradient id="SVGID_11_" gradientUnits="userSpaceOnUse" x1="3179.4426" y1="3103.2661" x2="3152.2507" y2="3595.7354">
					<stop  offset="0" style="stop-color:#4F52FF"/>
					<stop  offset="1" style="stop-color:#4042E2"/>
				</linearGradient>
				<path class="st22" d="M3100.23,3558.27h33.18c6.21,0,12.07-2.85,15.86-7.77c10.34-13.44,31.78-39.67,42.03-40.35
					c13.8-0.92,12.03,48.13,12.03,48.13h7.73l9.8-60.95c2.46-15.33-5.16-30.53-18.93-37.71l0,0c0,0-3.15,23.32-20.25,33.64
					c-17.1,10.32-69.59,47.26-69.59,47.26s-6.43-0.92-13.49,0.36C3088.13,3542.77,3089.59,3558.27,3100.23,3558.27z"/>
				<linearGradient id="SVGID_12_" gradientUnits="userSpaceOnUse" x1="3357.5193" y1="3860.1692" x2="3473.0442" y2="2509.9705">
					<stop  offset="0" style="stop-color:#FEBBBA"/>
					<stop  offset="1" style="stop-color:#FF928E"/>
				</linearGradient>
				<path class="st23" d="M3280.78,3084.37c0,0,137.85,261.48,159.76,321.18c21.91,59.7,29.59,109.5,29.88,114.22
					c0.46,7.37,9.63,14.44,34.89,14.44c13.04,0,19.42-5.23,22.55-10.29c2.67-4.32,2.81-9.72,0.56-14.27
					c-7.97-16.14-33.28-67.71-42.65-91.1c-11.19-27.93-35.26-154.48-48.46-198.49c-13.2-44-28.12-91.73-85.6-135.7
					C3351.71,3084.37,3312.25,3045.72,3280.78,3084.37z"/>
				<linearGradient id="SVGID_13_" gradientUnits="userSpaceOnUse" x1="3314.3831" y1="2242.03" x2="2965.6309" y2="2729.3882">
					<stop  offset="0" style="stop-color:#FF928E"/>
					<stop  offset="1" style="stop-color:#FE7062"/>
				</linearGradient>
				<path class="st24" d="M3193.7,2655.92c-20.19-85.55,0.12-150,21.45-189.73c17.01-31.69,5.05-70.89-26.86-87.48
					c-49.87-25.94-100.47-38.07-100.47-38.07s-98.82,72.24-87.09,128.79c6.87,33.14,69.46,198.52,69.46,198.52
					S3128.07,2695.35,3193.7,2655.92z"/>
				<linearGradient id="SVGID_14_" gradientUnits="userSpaceOnUse" x1="3507.2104" y1="2481.4399" x2="2885.9094" y2="3319.2559">
					<stop  offset="0" style="stop-color:#4F52FF"/>
					<stop  offset="1" style="stop-color:#4042E2"/>
				</linearGradient>
				<path class="st25" d="M3272.54,2730.52c-14.47-43.59-78.84-74.59-78.84-74.59c-65.64,39.42-123.51,12.03-123.51,12.03
					s-12.98,49.61-4.02,95.71c8.96,46.1,65.16,342.4,65.16,342.4c88.56,17.94,224.76-18.05,224.76-18.05
					C3299.68,2987.87,3287.01,2774.11,3272.54,2730.52z"/>
				<linearGradient id="SVGID_15_" gradientUnits="userSpaceOnUse" x1="3112.5291" y1="2509.5427" x2="3134.2244" y2="2350.8252">
					<stop  offset="0" style="stop-color:#FEBBBA"/>
					<stop  offset="1" style="stop-color:#FF928E"/>
				</linearGradient>
				<path class="st26" d="M3152.43,2241.08l28.91,129.85c2.77,11.44-7.66,9.57-19.22,7.39c-18.94-3.57-43.35-10.92-51.51-25.66
					c-0.83-1.5-1.25-3.2-1.48-4.89l-12.42-90.04c-0.99-7.14,2.88-14.08,9.47-17l23.97-10.63
					C3139.37,2226,3150.05,2231.27,3152.43,2241.08z"/>
				<linearGradient id="SVGID_16_" gradientUnits="userSpaceOnUse" x1="2997.8491" y1="2138.4304" x2="2977.4514" y2="2640.5173">
					<stop  offset="0" style="stop-color:#FEBBBA"/>
					<stop  offset="1" style="stop-color:#FF928E"/>
				</linearGradient>
				<path class="st27" d="M2791.09,2155.31c0,0,76.09,264.32,382.91,239.48c19.63-1.59,36.87,12.96,38.4,32.59l0.83,10.61
					c2.21,28.44-21,52.42-49.49,50.98c-102.05-5.16-321.21-45.24-396.32-287.71L2791.09,2155.31z"/>
				<linearGradient id="SVGID_17_" gradientUnits="userSpaceOnUse" x1="2769.9099" y1="2134.1086" x2="2750.9077" y2="2601.8474">
					<stop  offset="0" style="stop-color:#FEBBBA"/>
					<stop  offset="1" style="stop-color:#FF928E"/>
				</linearGradient>
				<path class="st28" d="M2767.41,2201.26c0,0-14.62-43.03-18.29-69.92c-3.67-26.89,9.85-87.26,21.47-104.23
					c11.62-16.97,13.56,24.63,18.79,44.19c5.23,19.55-3.63,47.45-3.63,47.45l5.34,36.57L2767.41,2201.26z"/>
				<g>
					
						<linearGradient id="SVGID_18_" gradientUnits="userSpaceOnUse" x1="-5177.731" y1="2961.3838" x2="-5032.4438" y2="3128.425" gradientTransform="matrix(0.9653 0.2612 -0.2612 0.9653 8856.9795 649.0368)">
						<stop  offset="0" style="stop-color:#FEBBBA"/>
						<stop  offset="1" style="stop-color:#FF928E"/>
					</linearGradient>
					<path class="st29" d="M3093.15,2133.95c0,0-73.1,106.49-27.64,136.16c45.46,29.67,97.5-46.01,97.5-46.01s16.34-57.84-2.25-77
						C3142.17,2127.93,3093.15,2133.95,3093.15,2133.95z"/>
					
						<linearGradient id="SVGID_19_" gradientUnits="userSpaceOnUse" x1="2955.9785" y1="2669.0632" x2="3264.8745" y2="1918.3536" gradientTransform="matrix(0.9998 -0.0189 0.0189 0.9998 -59.5478 19.4772)">
						<stop  offset="0" style="stop-color:#09005D"/>
						<stop  offset="1" style="stop-color:#1A0F91"/>
					</linearGradient>
					<path class="st30" d="M3123.82,2108.11c0,0-31.8,8.17-36.01,22.71c-4.2,14.54,45.83,27,59.79,27.39l12.34,58.11
						c0,0,32.19-55.5,18.43-86.94C3164.61,2097.96,3123.82,2108.11,3123.82,2108.11z"/>
					
						<linearGradient id="SVGID_20_" gradientUnits="userSpaceOnUse" x1="-5141.4312" y1="2929.8108" x2="-4996.146" y2="3096.8496" gradientTransform="matrix(0.9653 0.2612 -0.2612 0.9653 8856.9795 649.0368)">
						<stop  offset="0" style="stop-color:#FEBBBA"/>
						<stop  offset="1" style="stop-color:#FF928E"/>
					</linearGradient>
					<path class="st31" d="M3148.3,2216.65c0,0,28.59-34.4,40.63-12.55c12.04,21.84-25.58,39.13-38.91,28.54L3148.3,2216.65z"/>
				</g>
			</g>
		</g>
		<g>
			<g>
				<g>
					<path class="st1" d="M413.9,3237.48l1163.78,0v-189.01l-1163.78,0C438.81,3048.47,438.81,3237.48,413.9,3237.48z"/>
					<linearGradient id="SVGID_21_" gradientUnits="userSpaceOnUse" x1="1001.8318" y1="1943.2621" x2="1014.4273" y2="2594.0347">
						<stop  offset="0" style="stop-color:#FF928E"/>
						<stop  offset="1" style="stop-color:#FE7062"/>
					</linearGradient>
					<path class="st32" d="M1577.67,3190.18v-86.5c0-30.49-23-55.21-51.37-55.21H418.8c-22.31,0-40.4-14.68-40.4-32.78
						c0-5.5,5.5-9.96,12.27-9.96h1210.41c27.76,0,71.83,35.41,71.83,79.1v120.81c0,41.19-42.79,74.58-68.96,74.58H397.05
						c-10.3,0-18.64-6.77-18.64-15.13c0-15.25,15.23-27.61,34.03-27.61h1121.23C1557.97,3237.48,1577.67,3216.3,1577.67,3190.18z"/>
				</g>
				<path class="st33" d="M1545.4,3091.45H454.2c-2.32,0-4.2-1.88-4.2-4.2c0-2.32,1.88-4.2,4.2-4.2h1091.2c2.32,0,4.2,1.88,4.2,4.2
					C1549.59,3089.57,1547.72,3091.45,1545.4,3091.45z"/>
				<path class="st33" d="M1545.4,3119.5H454.2c-2.32,0-4.2-1.88-4.2-4.2c0-2.32,1.88-4.2,4.2-4.2h1091.2c2.32,0,4.2,1.88,4.2,4.2
					C1549.59,3117.62,1547.72,3119.5,1545.4,3119.5z"/>
				<path class="st33" d="M1545.4,3147.56H454.2c-2.32,0-4.2-1.88-4.2-4.2c0-2.32,1.88-4.2,4.2-4.2h1091.2c2.32,0,4.2,1.88,4.2,4.2
					C1549.59,3145.68,1547.72,3147.56,1545.4,3147.56z"/>
				<path class="st33" d="M1545.4,3175.62H454.2c-2.32,0-4.2-1.88-4.2-4.2s1.88-4.2,4.2-4.2h1091.2c2.32,0,4.2,1.88,4.2,4.2
					S1547.72,3175.62,1545.4,3175.62z"/>
				<path class="st33" d="M1545.4,3203.67H454.2c-2.32,0-4.2-1.88-4.2-4.2c0-2.32,1.88-4.2,4.2-4.2h1091.2c2.32,0,4.2,1.88,4.2,4.2
					C1549.59,3201.79,1547.72,3203.67,1545.4,3203.67z"/>
			</g>
			<g>
				<linearGradient id="SVGID_22_" gradientUnits="userSpaceOnUse" x1="988.4706" y1="4421.4204" x2="951.6597" y2="3671.0483">
					<stop  offset="0" style="stop-color:#4F52FF"/>
					<stop  offset="1" style="stop-color:#4042E2"/>
				</linearGradient>
				<path class="st34" d="M1702.28,3598.68H178.44c-8.11,0-14.68-6.57-14.68-14.68v-286.46c0-8.11,6.57-14.68,14.68-14.68h1523.84
					c8.11,0,14.68,6.57,14.68,14.68v286.46C1716.96,3592.11,1710.39,3598.68,1702.28,3598.68z"/>
				<path class="st35" d="M491.36,3562.39H369.7c-16.79,0-30.4-13.61-30.4-30.41v-182.42c0-16.79,13.61-30.41,30.4-30.41h121.66
					c16.79,0,30.41,13.61,30.41,30.41v182.42C521.76,3548.77,508.15,3562.39,491.36,3562.39z"/>
				<path class="st35" d="M592.34,3562.39h-19c-13.66,0-24.73-11.07-24.73-24.73v-193.77c0-13.66,11.07-24.73,24.73-24.73h19
					c13.66,0,24.73,11.07,24.73,24.73v193.77C617.06,3551.32,605.99,3562.39,592.34,3562.39z"/>
			</g>
		</g>
		<g>
			<g>
				
					<linearGradient id="SVGID_23_" gradientUnits="userSpaceOnUse" x1="1339.7244" y1="1344.5422" x2="1192.0826" y2="1648.8646" gradientTransform="matrix(0.987 0.1608 -0.1608 0.987 126.9837 357.2448)">
					<stop  offset="0" style="stop-color:#09005D"/>
					<stop  offset="1" style="stop-color:#1A0F91"/>
				</linearGradient>
				<path class="st36" d="M949.48,2155.83c-0.75,1.43-48.23,36.37-48.23,36.37s10.49,75.01,53.06,104.63
					c46.81,32.57,112.92-26.82,112.92-26.82s52.61,12.51,80.59-97.01c6.42-25.13-30.63-27.25-75.35-22.62
					C1014.8,2156.33,949.48,2155.83,949.48,2155.83z"/>
				<linearGradient id="SVGID_24_" gradientUnits="userSpaceOnUse" x1="1441.9194" y1="1588.4844" x2="1089.2416" y2="2453.3853">
					<stop  offset="0" style="stop-color:#FF928E"/>
					<stop  offset="1" style="stop-color:#FE7062"/>
				</linearGradient>
				<path class="st37" d="M860.73,2411.74c18.57-12.77,39.11-22.4,60.88-28.32c8.18-2.23,52.33,10.61,79.63,9.98
					c37.47-0.86,75.61-17.91,106.49-10.22c30.68,7.65,55.79,17.63,70.29,27.94c43.4,30.86,68.87,88.42,84.4,145.42
					c-29.4,30.18-66.4,43.59-66.4,43.59l-6.84,277.1l-163.85,83.83l-187.02-93.89l6.7-270.79c0,0-59.39-27.66-63.74-37.72
					C776.92,2548.61,808.34,2447.77,860.73,2411.74z"/>
				<linearGradient id="SVGID_25_" gradientUnits="userSpaceOnUse" x1="743.3776" y1="2498.1406" x2="1054.7421" y2="3250.2678">
					<stop  offset="0" style="stop-color:#FEBBBA"/>
					<stop  offset="1" style="stop-color:#FF928E"/>
				</linearGradient>
				<path class="st38" d="M784.04,2557.46c0,0-79.58,220.63,101.89,311.31c37.68-5.01,23.19-67.58,23.19-67.58
					s-78.85-17.45-55.17-201.5C832.15,2581.75,784.04,2557.46,784.04,2557.46z"/>
				
					<linearGradient id="SVGID_26_" gradientUnits="userSpaceOnUse" x1="-5462.4277" y1="2496.5237" x2="-5151.063" y2="3248.6511" gradientTransform="matrix(-1 0 0 1 -4167.0742 0)">
					<stop  offset="0" style="stop-color:#FEBBBA"/>
					<stop  offset="1" style="stop-color:#FF928E"/>
				</linearGradient>
				<path class="st39" d="M1258.6,2557.46c0,0,54.76,230.31-101.89,311.31c-37.68-5.01-23.19-67.58-23.19-67.58
					s63.55-31.3,55.17-201.5C1210.49,2581.75,1258.6,2557.46,1258.6,2557.46z"/>
				<linearGradient id="SVGID_27_" gradientUnits="userSpaceOnUse" x1="1019.9545" y1="2595.2786" x2="1003.763" y2="3251.0457">
					<stop  offset="0" style="stop-color:#09005D"/>
					<stop  offset="1" style="stop-color:#1A0F91"/>
				</linearGradient>
				<path class="st40" d="M1187.13,2884.27H844.5c-4.58,0-8.33-3.75-8.33-8.33v-225.99c0-4.58,3.75-8.33,8.33-8.33h342.64
					c4.58,0,8.33,3.75,8.33,8.33v225.99C1195.47,2880.52,1191.72,2884.27,1187.13,2884.27z"/>
				<g>
					
						<linearGradient id="SVGID_28_" gradientUnits="userSpaceOnUse" x1="1220.1255" y1="2963.5583" x2="1390.2751" y2="2963.5583" gradientTransform="matrix(1 7.700000e-03 -7.700000e-03 1 9.5247 16.8137)">
						<stop  offset="0" style="stop-color:#09005D"/>
						<stop  offset="1" style="stop-color:#1A0F91"/>
					</linearGradient>
					<path class="st41" d="M1353.07,2956.21c-41.12-9.44-136.16-4.36-136.16-4.36l-3.87,10.47l-6.4,52.03
						c0,0,90.51,16.31,135.12,16.27c4.55,0,8.71-0.69,12.52-1.87c1.36-1.22,2.69-2.49,3.95-3.86
						C1377.15,3004.22,1371.69,2973.85,1353.07,2956.21z"/>
					<linearGradient id="SVGID_29_" gradientUnits="userSpaceOnUse" x1="1319.1356" y1="2682.9797" x2="1139.5308" y2="3169.4592">
						<stop  offset="0" style="stop-color:#FEBBBA"/>
						<stop  offset="1" style="stop-color:#FF928E"/>
					</linearGradient>
					<path class="st42" d="M1189.6,2948.92l16.09,0.69c8.65,0.37,16.8,4.58,22.61,11.69c5.81,7.11,8.8,16.51,8.29,26.09
						c-0.41,7.64-3.54,14.78-8.71,19.85c-5.17,5.07-11.95,7.64-18.83,7.15l-24.62-1.75L1189.6,2948.92z"/>
				</g>
				<g>
					
						<linearGradient id="SVGID_30_" gradientUnits="userSpaceOnUse" x1="-5667.5571" y1="2927.0012" x2="-5497.3359" y2="2927.0012" gradientTransform="matrix(-0.9998 -0.02 -0.02 0.9998 -4813.9961 -50.8396)">
						<stop  offset="0" style="stop-color:#09005D"/>
						<stop  offset="1" style="stop-color:#1A0F91"/>
					</linearGradient>
					<path class="st43" d="M648.47,2951.2c41.34-8.17,136.21-0.19,136.21-0.19l3.6,10.58l5.1,52.21c0,0-90.88,13.53-135.47,12.12
						c-4.55-0.14-8.7-0.95-12.47-2.25c-1.33-1.26-2.63-2.57-3.85-3.98C623.2,2998.46,629.42,2968.27,648.47,2951.2z"/>
					<linearGradient id="SVGID_31_" gradientUnits="userSpaceOnUse" x1="959.2938" y1="2536.3789" x2="779.5945" y2="3023.1143">
						<stop  offset="0" style="stop-color:#FEBBBA"/>
						<stop  offset="1" style="stop-color:#FF928E"/>
					</linearGradient>
					<path class="st44" d="M812.06,2948.93l-16.1,0.19c-8.65,0.1-16.9,4.06-22.89,10.99c-5.99,6.93-9.21,16.23-8.94,25.83
						c0.22,7.65,3.17,14.89,8.21,20.11c5.04,5.22,11.75,8.01,18.64,7.73l24.66-1L812.06,2948.93z"/>
				</g>
				<linearGradient id="SVGID_32_" gradientUnits="userSpaceOnUse" x1="1395.2622" y1="2673.5896" x2="928.3553" y2="3024.3279">
					<stop  offset="0" style="stop-color:#4F52FF"/>
					<stop  offset="1" style="stop-color:#4042E2"/>
				</linearGradient>
				<path class="st45" d="M1364.57,2793.09c-18.65-42.92-64.26-49.88-103.08-29.82c-0.68,0.89-246.52,126.89-463.33,182.11
					c6.21,19.9,9.4,41.07,10.09,61.88c0.13,4.64,0.05,9.21-0.22,13.72c166.26-8.54,346.7-63.99,501.75-112.71
					C1357.87,2892.76,1385.23,2840.66,1364.57,2793.09z"/>
				<linearGradient id="SVGID_33_" gradientUnits="userSpaceOnUse" x1="973.0355" y1="2988.1675" x2="850.6656" y2="2676.1248">
					<stop  offset="0" style="stop-color:#4F52FF"/>
					<stop  offset="1" style="stop-color:#4042E2"/>
				</linearGradient>
				<path class="st46" d="M1190.78,3010.52c-0.65-23.99,4.01-46.32,13.99-66.99c0.29-0.95,0.63-1.86,0.93-2.79
					c-12.38-3.83-28.37-9.03-49.39-16.16c-153.95-52.69-271.4-105.89-383.5-167.13c-43.55-23.79-93.06-7.85-107,43.68
					c-12.44,46,14.88,85.27,56.36,99.07c124.08,41.29,59.48,29.82,100,42.86c108.83,33.65,244.26,64.31,368.86,72.68
					C1190.95,3014,1190.84,3012.26,1190.78,3010.52z"/>
				<linearGradient id="SVGID_34_" gradientUnits="userSpaceOnUse" x1="1016.7111" y1="2560.2417" x2="1012.5681" y2="2199.7834">
					<stop  offset="0" style="stop-color:#FEBBBA"/>
					<stop  offset="1" style="stop-color:#FF928E"/>
				</linearGradient>
				<path class="st47" d="M921.62,2383.42c0,0,16.56,71.75,96.94,70.26c81.88-1.49,89.18-70.5,89.18-70.5l-53.48-11.44l-4.47-59.59
					l-80.45,5.96l-1.49,56.61L921.62,2383.42z"/>
				
					<linearGradient id="SVGID_35_" gradientUnits="userSpaceOnUse" x1="1188.3422" y1="1835.6866" x2="1201.2477" y2="1522.0259" gradientTransform="matrix(0.987 0.1608 -0.1608 0.987 126.9837 357.2448)">
					<stop  offset="0" style="stop-color:#FEBBBA"/>
					<stop  offset="1" style="stop-color:#FF928E"/>
				</linearGradient>
				<path class="st48" d="M980.63,2143.3c0,0-92.2,178.59,17.17,221.92c77.14,30.56,125.51-118.6,111.08-159
					c-22.31-62.47-37-55.05-37-55.05L980.63,2143.3z"/>
				
					<linearGradient id="SVGID_36_" gradientUnits="userSpaceOnUse" x1="1340.806" y1="1301.712" x2="1174.6774" y2="1644.1403" gradientTransform="matrix(0.987 0.1608 -0.1608 0.987 126.9837 357.2448)">
					<stop  offset="0" style="stop-color:#09005D"/>
					<stop  offset="1" style="stop-color:#1A0F91"/>
				</linearGradient>
				<path class="st49" d="M1131.07,2127.05c45.55,12.52,6.62,111.3-61.95,87.94c-68.57-23.36-95.52-23.02-106.21-4.19
					c-10.69,18.83-12.98,85.7-36.17,52.65c-25.42-36.24-39.59-108.97-8.43-132.41c27.85-20.95,34.35-53.44,67.76-52.32
					c44.34,1.49,78.64-18.16,98.65-3.99C1107.72,2091.01,1097.55,2117.83,1131.07,2127.05z"/>
				
					<linearGradient id="SVGID_37_" gradientUnits="userSpaceOnUse" x1="632.2592" y1="2725.5413" x2="652.4833" y2="2234.0068" gradientTransform="matrix(0.9911 -0.1329 0.1329 0.9911 -26.0254 -216.2621)">
					<stop  offset="0" style="stop-color:#FEBBBA"/>
					<stop  offset="1" style="stop-color:#FF928E"/>
				</linearGradient>
				<path class="st50" d="M958.69,2226.16c0,0-19.66-21.16-22.81,4.34c-3.15,25.5,6.96,58.34,18.8,40.34
					C966.51,2252.84,958.69,2226.16,958.69,2226.16z"/>
			</g>
			<path class="st1" d="M1037.01,2743.89c1.9,12.87-4.99,24.56-17.87,26.46c-12.87,1.91-24.85-6.99-26.76-19.86
				c-1.9-12.87,3.99-25.66,16.86-27.56C1022.12,2721.03,1035.1,2731.02,1037.01,2743.89z"/>
		</g>
		<g>
			<circle class="st2" cx="789.87" cy="1645.01" r="420.54"/>
			<g>
				<path class="st1" d="M443.27,1624.5l88.24-46.01v19.61c0,1.49-0.37,2.84-1.12,4.07c-0.74,1.23-1.97,2.28-3.68,3.17l-40.44,20.72
					c-1.71,0.89-3.51,1.65-5.4,2.28c-1.89,0.63-3.92,1.21-6.07,1.73c2.15,0.52,4.18,1.1,6.07,1.73c1.89,0.63,3.69,1.39,5.4,2.29
					l40.44,20.84c1.71,0.89,2.93,1.95,3.68,3.17c0.74,1.23,1.12,2.58,1.12,4.07v19.61l-88.24-46.13V1624.5z"/>
				<path class="st1" d="M571.73,1705.16V1539.6h27.52v63.62c4.46-4.23,9.36-7.65,14.71-10.25c5.35-2.6,11.62-3.9,18.83-3.9
					c6.24,0,11.77,1.06,16.6,3.18c4.83,2.11,8.86,5.09,12.09,8.91c3.23,3.83,5.68,8.4,7.35,13.71c1.67,5.31,2.51,11.16,2.51,17.55
					v72.75h-27.52v-72.75c0-6.98-1.62-12.39-4.85-16.21c-3.23-3.82-8.08-5.74-14.54-5.74c-4.75,0-9.21,1.08-13.37,3.23
					c-4.16,2.15-8.1,5.09-11.81,8.8v82.67H571.73z"/>
				<path class="st1" d="M735.95,1706.95c-9.88,0-17.49-2.8-22.84-8.41c-5.35-5.61-8.02-13.35-8.02-23.23v-63.84h-11.59
					c-1.49,0-2.77-0.48-3.84-1.45c-1.08-0.96-1.62-2.41-1.62-4.34v-10.92l18.38-3.01l5.79-31.19c0.3-1.49,0.98-2.64,2.06-3.46
					c1.08-0.82,2.43-1.23,4.07-1.23h14.26v35.99h30.08v19.61h-30.08v61.95c0,3.57,0.89,6.35,2.67,8.36
					c1.78,2.01,4.16,3.01,7.13,3.01c1.71,0,3.14-0.2,4.29-0.61c1.15-0.41,2.15-0.84,3.01-1.28c0.85-0.45,1.62-0.87,2.28-1.28
					c0.67-0.41,1.34-0.61,2.01-0.61c0.82,0,1.49,0.21,2.01,0.61c0.52,0.41,1.08,1.02,1.67,1.84l8.25,13.37
					c-4.01,3.34-8.62,5.87-13.82,7.58C746.91,1706.09,741.53,1706.95,735.95,1706.95z"/>
				<path class="st1" d="M784.64,1705.16v-114.31h16.82c3.57,0,5.9,1.67,7.02,5.01l1.78,8.47c2.01-2.23,4.1-4.27,6.3-6.13
					c2.19-1.86,4.53-3.45,7.02-4.79c2.49-1.34,5.16-2.39,8.02-3.17c2.86-0.78,6-1.17,9.42-1.17c7.2,0,13.13,1.95,17.77,5.85
					c4.64,3.9,8.12,9.08,10.42,15.54c1.78-3.79,4.01-7.04,6.68-9.75c2.67-2.71,5.61-4.92,8.8-6.63c3.19-1.7,6.59-2.97,10.2-3.79
					c3.6-0.82,7.22-1.23,10.86-1.23c6.31,0,11.92,0.96,16.82,2.9c4.9,1.93,9.02,4.75,12.37,8.47c3.34,3.72,5.88,8.25,7.63,13.59
					c1.74,5.35,2.62,11.48,2.62,18.38v72.75h-27.52v-72.75c0-7.28-1.6-12.76-4.79-16.43c-3.2-3.68-7.88-5.52-14.04-5.52
					c-2.82,0-5.44,0.49-7.85,1.45c-2.42,0.96-4.53,2.36-6.35,4.18c-1.82,1.82-3.25,4.1-4.29,6.85c-1.04,2.75-1.56,5.9-1.56,9.47
					v72.75h-27.63v-72.75c0-7.65-1.54-13.22-4.62-16.71c-3.08-3.49-7.63-5.24-13.65-5.24c-3.94,0-7.63,0.99-11.09,2.95
					c-3.45,1.97-6.67,4.66-9.64,8.08v83.67H784.64z"/>
				<path class="st1" d="M1001.57,1539.6v165.57h-27.52V1539.6H1001.57z"/>
				<path class="st1" d="M1043.46,1681.76v-19.61c0-1.48,0.37-2.84,1.11-4.07c0.74-1.23,1.97-2.29,3.68-3.17l40.44-20.84
					c3.27-1.63,7.09-2.97,11.48-4.01c-2.16-0.52-4.18-1.1-6.07-1.73c-1.89-0.63-3.7-1.39-5.4-2.28l-40.44-20.72
					c-1.71-0.89-2.94-1.95-3.68-3.17c-0.74-1.23-1.11-2.58-1.11-4.07v-19.61l88.24,46.01v11.14L1043.46,1681.76z"/>
			</g>
		</g>
		<g>
			<circle class="st2" cx="1754.49" cy="1373.37" r="370.43"/>
			<g>
				<path class="st1" d="M1558.66,1373.98l107.06-55.82v23.79c0,1.8-0.46,3.45-1.36,4.94c-0.9,1.49-2.39,2.77-4.46,3.85
					l-49.07,25.14c-2.07,1.08-4.25,2.01-6.56,2.77c-2.3,0.77-4.76,1.47-7.37,2.09c2.61,0.63,5.07,1.33,7.37,2.1
					c2.3,0.77,4.48,1.69,6.56,2.77l49.07,25.28c2.07,1.08,3.56,2.37,4.46,3.85c0.9,1.48,1.36,3.13,1.36,4.93v23.8l-107.06-55.97
					V1373.98z"/>
				<path class="st1" d="M1726.13,1472.25c-0.81,2.08-1.85,3.88-3.11,5.41c-1.26,1.53-2.7,2.82-4.33,3.85
					c-1.62,1.03-3.34,1.83-5.13,2.36c-1.8,0.55-3.56,0.81-5.27,0.81h-14.06l78.94-201.95c1.53-3.78,3.74-6.69,6.62-8.72
					c2.89-2.03,6.35-3.04,10.41-3.04h14.19L1726.13,1472.25z"/>
				<path class="st1" d="M1832.25,1443.46v-23.8c0-1.8,0.45-3.45,1.35-4.93c0.9-1.49,2.39-2.77,4.46-3.85l49.07-25.28
					c3.96-1.98,8.6-3.6,13.92-4.87c-2.61-0.63-5.07-1.32-7.37-2.09c-2.3-0.76-4.49-1.69-6.56-2.77l-49.07-25.14
					c-2.07-1.08-3.56-2.37-4.46-3.85c-0.9-1.49-1.35-3.13-1.35-4.94v-23.79l107.05,55.82v13.52L1832.25,1443.46z"/>
			</g>
		</g>
		<g>
			<g class="st51">
				<linearGradient id="SVGID_38_" gradientUnits="userSpaceOnUse" x1="3415.3064" y1="1580.0865" x2="3431.1035" y2="1580.0865">
					<stop  offset="0" style="stop-color:#4F52FF"/>
					<stop  offset="1" style="stop-color:#4042E2"/>
				</linearGradient>
				<path class="st52" d="M3419.51,1588c-1.09,0-2.18-0.42-3-1.26c-1.62-1.66-1.59-4.32,0.07-5.94c2.48-2.42,4.92-4.87,7.32-7.35
					c1.62-1.66,4.27-1.71,5.94-0.1c1.66,1.61,1.71,4.27,0.1,5.94c-2.46,2.54-4.95,5.04-7.48,7.52
					C3421.62,1587.61,3420.56,1588,3419.51,1588z"/>
				<linearGradient id="SVGID_39_" gradientUnits="userSpaceOnUse" x1="2755.501" y1="1498.35" x2="3408.4634" y2="1498.35">
					<stop  offset="0" style="stop-color:#4F52FF"/>
					<stop  offset="1" style="stop-color:#4042E2"/>
				</linearGradient>
				<path class="st53" d="M3157.66,1698.55c-2.28,0-4.14-1.81-4.2-4.1c-0.05-2.32,1.78-4.24,4.1-4.3c6.8-0.16,13.7-0.52,20.53-1.05
					c2.3-0.16,4.33,1.55,4.51,3.86s-1.55,4.33-3.86,4.51c-6.97,0.55-14.03,0.91-20.98,1.07
					C3157.73,1698.55,3157.7,1698.55,3157.66,1698.55z M3136.87,1698.5c-0.04,0-0.09,0-0.13,0c-6.97-0.21-14.03-0.6-20.98-1.18
					c-2.31-0.19-4.03-2.22-3.83-4.53c0.19-2.31,2.2-4.03,4.53-3.83c6.8,0.57,13.7,0.96,20.53,1.16c2.32,0.07,4.14,2,4.08,4.32
					C3141,1696.7,3139.13,1698.5,3136.87,1698.5z M3199.07,1695.31c-2.07,0-3.88-1.54-4.16-3.65c-0.31-2.3,1.31-4.41,3.61-4.71
					c6.75-0.9,13.58-1.99,20.3-3.26c2.27-0.43,4.47,1.07,4.9,3.35c0.43,2.28-1.07,4.47-3.35,4.9c-6.86,1.29-13.84,2.41-20.74,3.33
					C3199.44,1695.3,3199.26,1695.31,3199.07,1695.31z M3095.46,1695.05c-0.19,0-0.38-0.01-0.58-0.04
					c-6.93-0.95-13.9-2.1-20.73-3.42c-2.28-0.44-3.77-2.64-3.32-4.92c0.43-2.27,2.63-3.76,4.92-3.33c6.68,1.29,13.5,2.41,20.28,3.35
					c2.3,0.32,3.9,2.43,3.58,4.73C3099.33,1693.52,3097.53,1695.05,3095.46,1695.05z M3239.91,1687.63c-1.89,0-3.6-1.28-4.08-3.2
					c-0.55-2.25,0.83-4.52,3.08-5.07c6.61-1.62,13.28-3.44,19.82-5.42c2.23-0.67,4.56,0.58,5.24,2.8s-0.58,4.56-2.8,5.23
					c-6.7,2.03-13.51,3.89-20.27,5.54C3240.57,1687.59,3240.24,1687.63,3239.91,1687.63z M3054.65,1687.2
					c-0.34,0-0.68-0.04-1.02-0.12c-6.76-1.68-13.57-3.57-20.24-5.6c-2.22-0.68-3.47-3.03-2.79-5.24c0.68-2.22,3.03-3.47,5.24-2.79
					c6.53,1.99,13.19,3.84,19.81,5.48c2.25,0.56,3.62,2.84,3.06,5.09C3058.25,1685.92,3056.54,1687.2,3054.65,1687.2z
					 M3279.68,1675.6c-1.72,0-3.33-1.06-3.95-2.77c-0.79-2.18,0.34-4.59,2.52-5.38c6.39-2.31,12.83-4.84,19.14-7.51
					c2.14-0.9,4.6,0.1,5.5,2.23c0.9,2.14-0.09,4.6-2.23,5.5c-6.45,2.73-13.03,5.31-19.55,7.67
					C3280.64,1675.52,3280.16,1675.6,3279.68,1675.6z M3014.92,1675.05c-0.48,0-0.96-0.08-1.44-0.26
					c-6.56-2.39-13.12-4.99-19.53-7.72c-2.13-0.91-3.12-3.38-2.21-5.51c0.91-2.14,3.39-3.12,5.51-2.21
					c6.27,2.67,12.69,5.22,19.11,7.56c2.18,0.8,3.3,3.2,2.51,5.38C3018.25,1674,3016.64,1675.05,3014.92,1675.05z M3317.96,1659.41
					c-1.56,0-3.05-0.87-3.78-2.36c-1.01-2.08-0.15-4.6,1.94-5.61c6.15-2.99,12.28-6.18,18.24-9.48c2.03-1.12,4.58-0.39,5.71,1.64
					c1.12,2.03,0.39,4.58-1.64,5.71c-6.08,3.37-12.35,6.63-18.63,9.68C3319.2,1659.27,3318.57,1659.41,3317.96,1659.41z
					 M2976.71,1658.76c-0.62,0-1.25-0.14-1.84-0.43c-6.25-3.07-12.51-6.35-18.6-9.75c-2.02-1.13-2.75-3.69-1.62-5.71
					s3.68-2.75,5.72-1.62c5.96,3.33,12.08,6.54,18.2,9.54c2.08,1.02,2.94,3.54,1.92,5.62
					C2979.75,1657.9,2978.26,1658.76,2976.71,1658.76z M3354.3,1639.28c-1.4,0-2.77-0.7-3.56-1.97c-1.23-1.97-0.64-4.56,1.33-5.79
					c5.79-3.63,11.55-7.45,17.12-11.36c1.9-1.33,4.51-0.88,5.85,1.02c1.33,1.9,0.87,4.52-1.02,5.85c-5.69,4-11.58,7.9-17.5,11.61
					C3355.83,1639.07,3355.07,1639.28,3354.3,1639.28z M2940.45,1638.5c-0.77,0-1.54-0.21-2.24-0.65
					c-5.89-3.72-11.76-7.65-17.45-11.68c-1.89-1.34-2.34-3.96-1-5.85c1.34-1.89,3.96-2.34,5.85-1c5.57,3.94,11.31,7.79,17.08,11.43
					c1.96,1.24,2.55,3.83,1.31,5.79C2943.21,1637.81,2941.85,1638.5,2940.45,1638.5z M3388.29,1615.4c-1.25,0-2.48-0.55-3.3-1.6
					c-1.43-1.82-1.12-4.46,0.71-5.9c5.38-4.23,10.7-8.65,15.81-13.13c1.73-1.53,4.39-1.36,5.92,0.39c1.53,1.74,1.35,4.4-0.39,5.92
					c-5.22,4.58-10.66,9.09-16.15,13.42C3390.11,1615.1,3389.19,1615.4,3388.29,1615.4z M2906.58,1614.49c-0.91,0-1.83-0.3-2.6-0.91
					c-5.47-4.34-10.89-8.87-16.09-13.47c-1.74-1.54-1.9-4.19-0.36-5.93c1.54-1.74,4.2-1.9,5.92-0.36c5.1,4.5,10.39,8.94,15.74,13.18
					c1.82,1.44,2.12,4.08,0.68,5.9C2909.04,1613.94,2907.82,1614.49,2906.58,1614.49z M2875.49,1586.99c-1.07,0-2.13-0.4-2.95-1.21
					c-4.94-4.87-9.84-9.96-14.54-15.12c-1.56-1.71-1.44-4.37,0.27-5.93c1.73-1.56,4.37-1.44,5.93,0.28
					c4.6,5.05,9.39,10.03,14.23,14.8c1.65,1.63,1.67,4.28,0.05,5.94C2877.66,1586.58,2876.57,1586.99,2875.49,1586.99z
					 M2847.54,1556.33c-1.22,0-2.42-0.53-3.26-1.54c-4.41-5.4-8.73-10.99-12.85-16.61c-1.37-1.87-0.96-4.5,0.91-5.87
					c1.87-1.37,4.5-0.96,5.87,0.91c4.03,5.51,8.25,10.98,12.57,16.26c1.47,1.8,1.2,4.44-0.59,5.91
					C2849.41,1556.02,2848.47,1556.33,2847.54,1556.33z M2823.03,1522.8c-1.37,0-2.71-0.67-3.52-1.9
					c-3.82-5.87-7.52-11.88-10.99-17.89c-1.16-2.01-0.47-4.58,1.54-5.73c2-1.16,4.57-0.47,5.74,1.54
					c3.4,5.88,7.01,11.77,10.75,17.51c1.27,1.94,0.72,4.55-1.23,5.81C2824.61,1522.58,2823.81,1522.8,2823.03,1522.8z
					 M2802.23,1486.84c-1.53,0-3-0.84-3.74-2.29c-1.49-2.93-2.95-5.88-4.38-8.86c-1.61-3.35-3.17-6.72-4.67-10.1
					c-0.94-2.12,0.01-4.6,2.13-5.54c2.12-0.95,4.6,0.02,5.54,2.13c1.47,3.3,2.99,6.6,4.56,9.88c1.4,2.92,2.83,5.81,4.29,8.68
					c1.05,2.07,0.23,4.59-1.83,5.65C2803.52,1486.7,2802.87,1486.84,2802.23,1486.84z M2785.33,1448.89c-1.69,0-3.28-1.03-3.92-2.7
					c-2.49-6.5-4.85-13.17-6.99-19.81c-0.71-2.21,0.5-4.57,2.7-5.29c2.22-0.71,4.58,0.5,5.29,2.7c2.1,6.5,4.4,13.02,6.84,19.39
					c0.83,2.16-0.25,4.59-2.42,5.42C2786.33,1448.8,2785.83,1448.89,2785.33,1448.89z M2772.55,1409.35c-1.86,0-3.55-1.24-4.05-3.12
					c-1.78-6.71-3.4-13.58-4.83-20.44c-0.48-2.27,0.98-4.49,3.25-4.97c2.25-0.48,4.49,0.98,4.97,3.25
					c1.4,6.71,2.99,13.45,4.73,20.01c0.59,2.24-0.74,4.54-2.98,5.13C2773.27,1409.3,2772.91,1409.35,2772.55,1409.35z
					 M2764.09,1368.67c-2.04,0-3.83-1.49-4.15-3.57c-1.05-6.88-1.92-13.9-2.6-20.85c-0.23-2.31,1.46-4.36,3.77-4.59
					c2.34-0.24,4.36,1.47,4.59,3.77c0.66,6.8,1.52,13.66,2.55,20.4c0.35,2.29-1.23,4.43-3.52,4.78
					C2764.51,1368.66,2764.3,1368.67,2764.09,1368.67z M2760.06,1327.32c-2.23,0-4.09-1.76-4.19-4.02
					c-0.24-5.58-0.36-11.26-0.36-16.89l0.02-4.1c0.02-2.32,2.1-4.25,4.24-4.16c2.32,0.02,4.18,1.92,4.16,4.24l-0.02,4.03
					c0,5.51,0.12,11.07,0.36,16.53c0.1,2.32-1.7,4.28-4.01,4.38C2760.18,1327.32,2760.12,1327.32,2760.06,1327.32z"/>
				<linearGradient id="SVGID_40_" gradientUnits="userSpaceOnUse" x1="2756.3164" y1="1276.115" x2="2765.5349" y2="1276.115">
					<stop  offset="0" style="stop-color:#4F52FF"/>
					<stop  offset="1" style="stop-color:#4042E2"/>
				</linearGradient>
				<path class="st54" d="M2760.52,1285.54c-0.09,0-0.18,0-0.27-0.01c-2.31-0.15-4.07-2.15-3.92-4.46c0.23-3.53,0.5-7.05,0.83-10.57
					c0.21-2.31,2.22-4.01,4.57-3.8c2.31,0.21,4.01,2.26,3.8,4.56c-0.32,3.44-0.59,6.89-0.81,10.34
					C2764.56,1283.84,2762.71,1285.54,2760.52,1285.54z"/>
			</g>
			<g class="st51">
				<linearGradient id="SVGID_41_" gradientUnits="userSpaceOnUse" x1="2888.7502" y1="1009.9625" x2="2905.1558" y2="1009.9625">
					<stop  offset="0" style="stop-color:#4F52FF"/>
					<stop  offset="1" style="stop-color:#4042E2"/>
				</linearGradient>
				<path class="st55" d="M2892.95,1017.55c-1.17,0-2.34-0.49-3.17-1.44c-1.52-1.75-1.34-4.4,0.41-5.92
					c2.66-2.31,5.36-4.6,8.09-6.85c1.79-1.47,4.44-1.21,5.91,0.58c1.47,1.79,1.21,4.44-0.57,5.91c-2.68,2.2-5.32,4.44-7.92,6.7
					C2894.91,1017.21,2893.93,1017.55,2892.95,1017.55z"/>
				<linearGradient id="SVGID_42_" gradientUnits="userSpaceOnUse" x1="2913.6475" y1="1122.6464" x2="3540.5247" y2="1122.6464">
					<stop  offset="0" style="stop-color:#4F52FF"/>
					<stop  offset="1" style="stop-color:#4042E2"/>
				</linearGradient>
				<path class="st56" d="M3535.74,1331.5c-0.08,0-0.16,0-0.23-0.01c-2.32-0.13-4.09-2.11-3.96-4.42
					c0.39-7.07,0.58-14.19,0.58-21.16c0-2.32,1.88-4.2,4.2-4.2s4.2,1.88,4.2,4.2c0,7.12-0.2,14.4-0.6,21.62
					C3539.81,1329.77,3537.95,1331.5,3535.74,1331.5z M3535.73,1288.72c-2.21,0-4.06-1.73-4.19-3.97
					c-0.39-7.02-0.98-14.12-1.76-21.09c-0.25-2.31,1.41-4.38,3.71-4.64c2.26-0.27,4.38,1.4,4.64,3.71
					c0.79,7.13,1.39,14.38,1.79,21.56c0.13,2.31-1.64,4.29-3.96,4.42C3535.88,1288.71,3535.81,1288.72,3535.73,1288.72z
					 M3531,1246.19c-2.01,0-3.79-1.45-4.14-3.5c-1.16-6.91-2.53-13.9-4.09-20.77c-0.51-2.26,0.91-4.51,3.17-5.02
					c2.26-0.5,4.51,0.91,5.02,3.17c1.59,7.02,2.99,14.16,4.18,21.23c0.38,2.29-1.16,4.45-3.44,4.84
					C3531.46,1246.17,3531.23,1246.19,3531,1246.19z M3521.58,1204.46c-1.83,0-3.51-1.2-4.04-3.05c-1.93-6.78-4.07-13.58-6.36-20.19
					c-0.76-2.19,0.41-4.58,2.6-5.34c2.18-0.75,4.58,0.41,5.34,2.6c2.34,6.76,4.52,13.7,6.5,20.63c0.64,2.23-0.66,4.55-2.89,5.19
					C3522.34,1204.41,3521.96,1204.46,3521.58,1204.46z M3507.61,1164.02c-1.65,0-3.22-0.99-3.89-2.61
					c-2.65-6.48-5.52-13-8.53-19.38c-0.99-2.1-0.09-4.6,2-5.59c2.11-0.99,4.6-0.09,5.59,2c3.08,6.51,6.01,13.17,8.71,19.8
					c0.88,2.15-0.15,4.6-2.3,5.47C3508.68,1163.92,3508.14,1164.02,3507.61,1164.02z M3489.32,1125.34c-1.49,0-2.94-0.8-3.7-2.2
					c-3.33-6.16-6.89-12.33-10.57-18.34c-1.21-1.98-0.59-4.56,1.38-5.77c1.96-1.22,4.56-0.6,5.78,1.38
					c3.76,6.13,7.4,12.44,10.8,18.73c1.1,2.04,0.34,4.59-1.7,5.69C3490.68,1125.17,3489.99,1125.34,3489.32,1125.34z
					 M3466.93,1088.88c-1.33,0-2.64-0.63-3.46-1.81c-3.99-5.76-8.2-11.5-12.52-17.06c-1.42-1.83-1.09-4.47,0.73-5.89
					c1.84-1.43,4.47-1.09,5.89,0.73c4.42,5.68,8.73,11.55,12.8,17.44c1.32,1.91,0.84,4.52-1.06,5.84
					C3468.59,1088.64,3467.76,1088.88,3466.93,1088.88z M3440.68,1055.14c-1.17,0-2.34-0.49-3.17-1.44
					c-4.6-5.28-9.42-10.52-14.33-15.55c-1.62-1.66-1.58-4.32,0.08-5.94c1.66-1.62,4.31-1.58,5.94,0.08
					c5.01,5.15,9.94,10.5,14.64,15.9c1.53,1.75,1.34,4.4-0.41,5.92C3442.64,1054.8,3441.66,1055.14,3440.68,1055.14z
					 M3410.87,1024.52c-1.02,0-2.03-0.37-2.84-1.11c-5.15-4.73-10.52-9.4-15.96-13.88c-1.79-1.47-2.05-4.12-0.58-5.91
					c1.47-1.78,4.12-2.05,5.91-0.58c5.57,4.58,11.06,9.35,16.31,14.18c1.71,1.57,1.82,4.23,0.25,5.93
					C3413.13,1024.06,3412,1024.52,3410.87,1024.52z M2917.85,997.63c-1.29,0-2.57-0.59-3.39-1.71c-1.37-1.87-0.97-4.5,0.9-5.87
					c5.77-4.24,11.76-8.39,17.78-12.32c1.94-1.26,4.54-0.72,5.81,1.22c1.27,1.94,0.72,4.54-1.22,5.81
					c-5.9,3.85-11.75,7.9-17.4,12.05C2919.58,997.37,2918.71,997.63,2917.85,997.63z M3377.83,997.37c-0.86,0-1.73-0.26-2.48-0.81
					c-5.65-4.14-11.51-8.19-17.41-12.03c-1.94-1.27-2.49-3.87-1.23-5.81c1.26-1.95,3.86-2.49,5.81-1.23
					c6.03,3.93,12.01,8.07,17.78,12.3c1.87,1.37,2.28,4,0.91,5.87C3380.39,996.78,3379.12,997.37,3377.83,997.37z M2953.68,974.26
					c-1.45,0-2.86-0.75-3.64-2.1c-1.16-2.01-0.47-4.58,1.54-5.73c6.23-3.59,12.63-7.06,19.02-10.29c2.07-1.05,4.59-0.22,5.64,1.85
					c1.05,2.07,0.22,4.6-1.85,5.64c-6.25,3.17-12.52,6.55-18.61,10.07C2955.11,974.08,2954.39,974.26,2953.68,974.26z M3342,974.03
					c-0.71,0-1.43-0.18-2.09-0.56c-6.08-3.5-12.35-6.88-18.62-10.05c-2.07-1.04-2.9-3.57-1.86-5.64s3.57-2.9,5.64-1.86
					c6.41,3.24,12.82,6.69,19.03,10.27c2.01,1.16,2.7,3.72,1.54,5.73C3344.86,973.28,3343.45,974.03,3342,974.03z M2991.85,954.93
					c-1.62,0-3.15-0.94-3.85-2.51c-0.93-2.12,0.03-4.6,2.15-5.54c6.57-2.89,13.31-5.64,20.03-8.17c2.17-0.81,4.6,0.28,5.41,2.45
					c0.82,2.17-0.28,4.59-2.45,5.41c-6.58,2.47-13.17,5.17-19.61,8C2992.99,954.81,2992.41,954.93,2991.85,954.93z M3303.81,954.76
					c-0.56,0-1.13-0.11-1.68-0.35c-6.41-2.81-13.01-5.48-19.61-7.95c-2.17-0.81-3.27-3.23-2.46-5.4c0.82-2.17,3.21-3.28,5.4-2.46
					c6.74,2.52,13.49,5.26,20.04,8.12c2.12,0.93,3.09,3.41,2.16,5.53C3306.97,953.82,3305.43,954.76,3303.81,954.76z
					 M3031.89,939.86c-1.78,0-3.44-1.15-4.01-2.94c-0.7-2.21,0.53-4.57,2.74-5.26c6.84-2.16,13.85-4.15,20.81-5.92
					c2.24-0.57,4.53,0.78,5.1,3.03c0.57,2.25-0.78,4.53-3.03,5.11c-6.81,1.74-13.67,3.69-20.36,5.79
					C3032.73,939.79,3032.31,939.86,3031.89,939.86z M3263.74,939.79c-0.41,0-0.84-0.06-1.25-0.19c-6.68-2.09-13.53-4.03-20.37-5.76
					c-2.25-0.57-3.61-2.85-3.04-5.1c0.57-2.25,2.85-3.61,5.1-3.04c6.98,1.77,13.98,3.75,20.81,5.89c2.21,0.69,3.44,3.05,2.75,5.26
					C3267.18,938.64,3265.52,939.79,3263.74,939.79z M3073.35,929.29c-1.97,0-3.72-1.39-4.12-3.39c-0.45-2.27,1.03-4.48,3.31-4.93
					c7.05-1.39,14.23-2.59,21.34-3.58c2.3-0.34,4.42,1.28,4.74,3.58c0.32,2.3-1.28,4.42-3.58,4.74c-6.95,0.97-13.97,2.15-20.87,3.51
					C3073.89,929.26,3073.61,929.29,3073.35,929.29z M3222.27,929.28c-0.27,0-0.54-0.02-0.81-0.08c-6.91-1.35-13.93-2.53-20.88-3.5
					c-2.3-0.32-3.9-2.44-3.58-4.74c0.32-2.3,2.44-3.92,4.74-3.58c7.1,0.99,14.28,2.19,21.34,3.57c2.28,0.44,3.76,2.65,3.31,4.93
					C3226,927.89,3224.24,929.28,3222.27,929.28z M3179.89,923.38c-0.11,0-0.23,0-0.35-0.01c-6.99-0.58-14.1-0.98-21.14-1.17
					c-2.32-0.06-4.15-1.99-4.08-4.31c0.07-2.32,2.14-4.17,4.31-4.08c7.2,0.2,14.47,0.6,21.61,1.2c2.31,0.19,4.03,2.22,3.83,4.53
					C3183.88,921.72,3182.05,923.38,3179.89,923.38z M3115.72,923.37c-2.16,0-4-1.66-4.18-3.85c-0.19-2.31,1.53-4.34,3.83-4.53
					c7.17-0.6,14.44-1,21.6-1.19c2.19-0.09,4.25,1.76,4.31,4.08c0.06,2.32-1.77,4.25-4.08,4.31c-7.01,0.19-14.12,0.59-21.13,1.17
					C3115.96,923.37,3115.84,923.37,3115.72,923.37z"/>
				<linearGradient id="SVGID_43_" gradientUnits="userSpaceOnUse" x1="3528.4214" y1="1354.0975" x2="3538.1279" y2="1354.0975">
					<stop  offset="0" style="stop-color:#4F52FF"/>
					<stop  offset="1" style="stop-color:#4042E2"/>
				</linearGradient>
				<path class="st57" d="M3532.62,1363.5c-0.19,0-0.39-0.01-0.59-0.04c-2.3-0.32-3.9-2.44-3.58-4.74
					c0.48-3.42,0.91-6.86,1.29-10.29c0.26-2.3,2.31-3.96,4.64-3.7c2.3,0.26,3.96,2.34,3.71,4.64c-0.39,3.52-0.84,7.02-1.32,10.52
					C3536.49,1361.98,3534.69,1363.5,3532.62,1363.5z"/>
			</g>
			<g>
				<linearGradient id="SVGID_44_" gradientUnits="userSpaceOnUse" x1="2807.4043" y1="1307.6443" x2="3482.145" y2="1307.6443">
					<stop  offset="0" style="stop-color:#4F52FF"/>
					<stop  offset="1" style="stop-color:#4042E2"/>
				</linearGradient>
				<path class="st58" d="M3481.78,1396.27c0.83-2.15,0.21-4.59-1.54-6.08l-50.17-42.48c4.3-30.4,3.78-61.7-2.02-92.76l48.21-44.63
					c1.69-1.57,2.2-4.03,1.27-6.14l-31.78-72.17c-0.93-2.11-3.09-3.4-5.39-3.21l-65.47,5.43c-18.99-25.25-41.74-46.76-67.06-64.11
					l2.53-65.69c0.09-2.3-1.29-4.41-3.44-5.24l-73.5-28.56c-2.15-0.83-4.59-0.21-6.08,1.54l-42.48,50.17
					c-30.4-4.3-61.7-3.78-92.76,2.02l-44.63-48.21c-1.57-1.69-4.03-2.2-6.14-1.27l-72.17,31.78c-2.11,0.93-3.4,3.09-3.21,5.39
					l5.43,65.47c-25.25,18.99-46.76,41.74-64.11,67.06l-65.69-2.53c-2.3-0.09-4.41,1.29-5.24,3.44l-28.55,73.5
					c-0.84,2.15-0.21,4.59,1.54,6.08l50.17,42.48c-4.3,30.4-3.78,61.7,2.02,92.76l-48.21,44.63c-1.69,1.57-2.2,4.03-1.27,6.14
					l31.78,72.17c0.93,2.11,3.09,3.4,5.39,3.2l65.47-5.43c18.99,25.25,41.74,46.76,67.06,64.11l-2.53,65.69
					c-0.09,2.3,1.29,4.41,3.44,5.24l73.5,28.55c2.15,0.83,4.59,0.21,6.08-1.54l42.48-50.17c30.4,4.3,61.7,3.78,92.76-2.02
					l44.63,48.21c1.56,1.69,4.03,2.2,6.14,1.27l72.16-31.78c2.11-0.93,3.4-3.09,3.21-5.39l-5.43-65.47
					c25.25-18.99,46.76-41.74,64.11-67.06l65.69,2.53c2.3,0.09,4.41-1.29,5.24-3.44L3481.78,1396.27z"/>
				<path class="st1" d="M3144.86,1381.83c-22.11,0-44-9.81-58.62-28.56c-25.16-32.28-19.36-79,12.91-104.16
					c15.63-12.18,35.1-17.55,54.75-15.12c19.68,2.44,37.22,12.39,49.41,28.03l0,0c12.19,15.63,17.56,35.08,15.12,54.75
					c-2.44,19.67-12.39,37.22-28.02,49.41C3176.88,1376.72,3160.81,1381.83,3144.86,1381.83z M3144.64,1241.81
					c-14.58,0-28.65,4.81-40.33,13.92c-28.63,22.31-33.76,63.75-11.45,92.38c22.32,28.63,63.76,33.75,92.38,11.45
					c13.87-10.81,22.69-26.37,24.85-43.82c2.16-17.45-2.6-34.69-13.41-48.56l0,0c-10.81-13.87-26.37-22.69-43.81-24.85
					C3150.12,1241.98,3147.37,1241.81,3144.64,1241.81z"/>
				<path class="st1" d="M3143.45,1501.63c-74.79,0-146.23-43.36-178.26-116.08c-11.19-25.42-16.49-51.97-16.49-78.12
					c0.01-74.78,43.38-146.22,116.09-178.24c47.54-20.94,100.39-22.11,148.81-3.3c48.42,18.81,86.62,55.35,107.55,102.89
					c5.59,12.69,9.82,25.95,12.6,39.44c0.06,0.28,0.09,0.57,0.09,0.85c0,1.95-1.37,3.7-3.35,4.11c-2.26,0.47-4.49-1-4.96-3.27
					c-2.65-12.9-6.71-25.6-12.05-37.74v0c-1.19-2.71-2.44-5.38-3.75-8.01c-0.01-0.01-0.01-0.02-0.02-0.03
					c-0.05-0.1-0.09-0.19-0.14-0.29c-0.01-0.02-0.02-0.04-0.03-0.06c0,0,0-0.01-0.01-0.02c0,0,0-0.01,0-0.01
					c-0.01-0.02-0.02-0.04-0.04-0.07c-20.69-41.35-55.52-73.1-98.92-89.97c-46.34-18-96.89-16.88-142.38,3.15
					c-69.58,30.64-111.07,98.99-111.08,170.55c0,25.01,5.07,50.42,15.78,74.74c41.36,93.9,151.4,136.64,245.29,95.29
					c30.87-13.6,57.43-35.26,76.81-62.64c1.34-1.89,3.95-2.34,5.85-1c1.16,0.82,1.77,2.12,1.77,3.43c0,0.84-0.25,1.68-0.77,2.42
					c-20.26,28.63-48.02,51.27-80.28,65.47C3196.13,1496.34,3169.59,1501.63,3143.45,1501.63z"/>
			</g>
		</g>
		<g>
			<g class="st51">
				<linearGradient id="SVGID_45_" gradientUnits="userSpaceOnUse" x1="2852.8826" y1="1094.2281" x2="2868.7061" y2="1094.2281">
					<stop  offset="0" style="stop-color:#4F52FF"/>
					<stop  offset="1" style="stop-color:#4042E2"/>
				</linearGradient>
				<path class="st59" d="M2857.08,1102.13c-1.1,0-2.2-0.43-3.02-1.28c-1.61-1.67-1.56-4.33,0.11-5.94c2.49-2.4,4.93-4.84,7.33-7.31
					c1.61-1.67,4.27-1.7,5.94-0.09c1.66,1.61,1.71,4.27,0.09,5.94c-2.46,2.54-4.97,5.05-7.52,7.51
					C2859.18,1101.74,2858.13,1102.13,2857.08,1102.13z"/>
				<linearGradient id="SVGID_46_" gradientUnits="userSpaceOnUse" x1="2326.9631" y1="1031.538" x2="2845.498" y2="1031.538">
					<stop  offset="0" style="stop-color:#4F52FF"/>
					<stop  offset="1" style="stop-color:#4042E2"/>
				</linearGradient>
				<path class="st60" d="M2641.78,1189.13c-5.7,0-11.46-0.16-17.13-0.47c-2.32-0.13-4.09-2.11-3.96-4.42
					c0.12-2.32,2.08-4.09,4.42-3.96c6.93,0.38,13.92,0.52,20.94,0.42h0.06c2.29,0,4.17,1.84,4.2,4.14c0.03,2.32-1.82,4.23-4.14,4.26
					C2644.7,1189.12,2643.24,1189.13,2641.78,1189.13z M2667.32,1188.07c-2.16,0-4-1.66-4.18-3.85c-0.19-2.31,1.53-4.34,3.83-4.53
					c6.93-0.58,13.93-1.4,20.8-2.45c2.3-0.36,4.44,1.22,4.78,3.51c0.35,2.29-1.22,4.43-3.51,4.78c-7.06,1.08-14.25,1.93-21.38,2.52
					C2667.55,1188.07,2667.43,1188.07,2667.32,1188.07z M2603.73,1186.78c-0.17,0-0.34-0.01-0.52-0.03
					c-7.1-0.88-14.25-2.01-21.25-3.37c-2.28-0.44-3.76-2.64-3.32-4.92c0.44-2.27,2.63-3.76,4.92-3.32
					c6.82,1.32,13.78,2.43,20.69,3.28c2.3,0.28,3.94,2.38,3.65,4.68C2607.63,1185.23,2605.82,1186.78,2603.73,1186.78z
					 M2709.28,1181.65c-1.92,0-3.65-1.33-4.09-3.28c-0.51-2.26,0.91-4.51,3.18-5.02c6.79-1.53,13.61-3.31,20.27-5.29
					c2.24-0.67,4.56,0.61,5.22,2.83c0.66,2.22-0.6,4.56-2.82,5.22c-6.84,2.04-13.85,3.87-20.83,5.43
					C2709.9,1181.61,2709.59,1181.65,2709.28,1181.65z M2562.06,1178.71c-0.36,0-0.72-0.05-1.08-0.14
					c-6.89-1.83-13.82-3.92-20.59-6.23c-2.2-0.75-3.37-3.13-2.63-5.33c0.75-2.19,3.13-3.37,5.33-2.62
					c6.6,2.24,13.35,4.28,20.05,6.06c2.24,0.59,3.58,2.89,2.98,5.13C2565.62,1177.47,2563.92,1178.71,2562.06,1178.71z
					 M2749.97,1169.53c-1.7,0-3.3-1.04-3.93-2.73c-0.81-2.17,0.29-4.59,2.46-5.4c6.5-2.43,13.01-5.12,19.36-8
					c2.12-0.96,4.6-0.02,5.56,2.09c0.96,2.11,0.02,4.6-2.09,5.56c-6.52,2.96-13.22,5.73-19.89,8.22
					C2750.96,1169.44,2750.46,1169.53,2749.97,1169.53z M2521.87,1165.06c-0.54,0-1.09-0.1-1.62-0.33
					c-6.57-2.75-13.16-5.76-19.56-8.96c-2.07-1.04-2.92-3.56-1.88-5.63c1.04-2.07,3.56-2.92,5.63-1.88
					c6.24,3.12,12.64,6.05,19.05,8.73c2.14,0.89,3.15,3.35,2.25,5.49C2525.07,1164.09,2523.51,1165.06,2521.87,1165.06z
					 M2788.65,1152c-1.5,0-2.94-0.8-3.7-2.21c-1.1-2.04-0.33-4.59,1.71-5.68c6.12-3.29,12.21-6.83,18.1-10.53
					c1.96-1.24,4.55-0.64,5.79,1.32c1.23,1.96,0.64,4.56-1.32,5.79c-6.05,3.8-12.31,7.44-18.6,10.82
					C2790,1151.84,2789.31,1152,2788.65,1152z M2483.91,1146.07c-0.72,0-1.46-0.19-2.12-0.58c-6.17-3.63-12.28-7.51-18.16-11.54
					c-1.91-1.31-2.4-3.92-1.09-5.84c1.31-1.91,3.92-2.4,5.83-1.09c5.73,3.92,11.68,7.7,17.68,11.23c2,1.18,2.67,3.75,1.49,5.75
					C2486.75,1145.33,2485.35,1146.07,2483.91,1146.07z M2824.58,1129.42c-1.3,0-2.57-0.6-3.4-1.73c-1.37-1.87-0.95-4.5,0.92-5.87
					c5.62-4.09,11.17-8.43,16.5-12.9c1.78-1.49,4.43-1.25,5.91,0.52c1.49,1.78,1.26,4.43-0.52,5.92
					c-5.47,4.59-11.17,9.05-16.95,13.26C2826.3,1129.15,2825.44,1129.42,2824.58,1129.42z M2448.89,1122.1c-0.91,0-1.83-0.3-2.6-0.9
					c-5.63-4.45-11.15-9.13-16.42-13.92c-1.71-1.56-1.84-4.21-0.28-5.93c1.56-1.71,4.22-1.84,5.93-0.28
					c5.13,4.66,10.5,9.22,15.97,13.54c1.82,1.44,2.13,4.08,0.69,5.9C2451.36,1121.55,2450.13,1122.1,2448.89,1122.1z
					 M2417.49,1093.56c-1.1,0-2.21-0.43-3.03-1.29c-4.94-5.15-9.77-10.55-14.35-16.04c-1.48-1.78-1.24-4.43,0.54-5.91
					c1.79-1.49,4.43-1.24,5.92,0.54c4.45,5.34,9.15,10.59,13.95,15.61c1.61,1.67,1.55,4.33-0.12,5.93
					C2419.58,1093.17,2418.54,1093.56,2417.49,1093.56z M2390.31,1060.98c-1.3,0-2.58-0.6-3.41-1.74
					c-4.17-5.77-8.21-11.78-12.01-17.85c-1.23-1.97-0.63-4.56,1.34-5.79c1.96-1.23,4.55-0.63,5.79,1.34
					c3.69,5.92,7.63,11.76,11.69,17.38c1.36,1.88,0.93,4.5-0.94,5.86C2392.02,1060.72,2391.16,1060.98,2390.31,1060.98z
					 M2367.84,1024.97c-1.5,0-2.95-0.81-3.71-2.22c-2.15-4.03-4.25-8.19-6.24-12.35c-1.11-2.32-2.19-4.64-3.24-6.97
					c-0.96-2.11-0.02-4.6,2.1-5.55c2.12-0.96,4.6-0.01,5.55,2.1c1.02,2.27,2.08,4.54,3.16,6.8c1.94,4.05,3.99,8.09,6.08,12.02
					c1.09,2.05,0.32,4.59-1.73,5.68C2369.18,1024.82,2368.51,1024.97,2367.84,1024.97z M2350.42,986.26c-1.71,0-3.31-1.05-3.94-2.74
					c-2.49-6.71-4.77-13.58-6.79-20.43c-0.66-2.22,0.61-4.56,2.84-5.22c2.24-0.65,4.56,0.62,5.21,2.84
					c1.96,6.66,4.19,13.35,6.61,19.88c0.81,2.18-0.3,4.59-2.48,5.4C2351.4,986.18,2350.91,986.26,2350.42,986.26z M2338.42,945.53
					c-1.93,0-3.66-1.33-4.1-3.29c-1.54-6.94-2.86-14.06-3.93-21.16c-0.34-2.29,1.23-4.43,3.53-4.78c2.29-0.36,4.43,1.24,4.78,3.53
					c1.04,6.91,2.32,13.84,3.82,20.6c0.5,2.27-0.93,4.51-3.19,5.01C2339.03,945.5,2338.72,945.53,2338.42,945.53z M2332.13,903.56
					c-2.17,0-4.01-1.67-4.18-3.86c-0.57-7.1-0.9-14.33-0.98-21.5c-0.02-2.32,1.83-4.22,4.15-4.25c2.28,0.03,4.22,1.83,4.25,4.15
					c0.08,6.98,0.4,14.02,0.96,20.93c0.18,2.31-1.54,4.33-3.85,4.52C2332.35,903.55,2332.24,903.56,2332.13,903.56z"/>
				<linearGradient id="SVGID_47_" gradientUnits="userSpaceOnUse" x1="2327.4685" y1="851.5527" x2="2336.6528" y2="851.5527">
					<stop  offset="0" style="stop-color:#4F52FF"/>
					<stop  offset="1" style="stop-color:#4042E2"/>
				</linearGradient>
				<path class="st61" d="M2331.67,860.98c-0.08,0-0.17,0-0.25-0.01c-2.32-0.14-4.08-2.12-3.94-4.44c0.21-3.54,0.47-7.07,0.8-10.6
					c0.21-2.31,2.23-3.99,4.57-3.8c2.31,0.21,4.01,2.26,3.8,4.56c-0.32,3.43-0.57,6.88-0.78,10.32
					C2335.73,859.26,2333.88,860.98,2331.67,860.98z"/>
			</g>
			<g class="st51">
				<linearGradient id="SVGID_48_" gradientUnits="userSpaceOnUse" x1="2433.4631" y1="637.0728" x2="2449.8921" y2="637.0728">
					<stop  offset="0" style="stop-color:#4F52FF"/>
					<stop  offset="1" style="stop-color:#4042E2"/>
				</linearGradient>
				<path class="st62" d="M2437.66,644.65c-1.17,0-2.34-0.49-3.17-1.44c-1.52-1.75-1.34-4.4,0.41-5.92c2.67-2.32,5.38-4.6,8.14-6.84
					c1.8-1.46,4.45-1.18,5.9,0.61c1.46,1.8,1.18,4.44-0.61,5.91c-2.69,2.18-5.33,4.4-7.92,6.66
					C2439.62,644.31,2438.64,644.65,2437.66,644.65z"/>
				<linearGradient id="SVGID_49_" gradientUnits="userSpaceOnUse" x1="2458.1548" y1="724.8705" x2="2956.1738" y2="724.8705">
					<stop  offset="0" style="stop-color:#4F52FF"/>
					<stop  offset="1" style="stop-color:#4042E2"/>
				</linearGradient>
				<path class="st63" d="M2951.77,889.83c-0.05,0-0.1,0-0.16,0c-2.32-0.08-4.13-2.03-4.04-4.35c0.13-3.72,0.2-7.44,0.2-11.17
					c0-3.15-0.05-6.3-0.15-9.45c-0.07-2.32,1.75-4.25,4.07-4.33c2.39-0.04,4.26,1.75,4.33,4.07c0.1,3.24,0.15,6.47,0.15,9.7
					c0,3.83-0.07,7.65-0.21,11.47C2955.88,888.04,2954.02,889.83,2951.77,889.83z M2950.47,848.08c-2.13,0-3.96-1.62-4.17-3.78
					c-0.67-6.79-1.59-13.67-2.73-20.43c-0.39-2.29,1.16-4.45,3.44-4.84c2.31-0.38,4.45,1.16,4.84,3.44c1.17,6.96,2.11,14.02,2.8,21
					c0.23,2.31-1.46,4.36-3.76,4.59C2950.75,848.07,2950.61,848.08,2950.47,848.08z M2943.53,806.88c-1.9,0-3.62-1.3-4.08-3.22
					c-1.59-6.65-3.43-13.34-5.47-19.88c-0.69-2.21,0.55-4.57,2.76-5.26c2.21-0.7,4.56,0.55,5.26,2.76
					c2.09,6.72,3.98,13.59,5.61,20.42c0.54,2.26-0.85,4.52-3.11,5.06C2944.19,806.85,2943.86,806.88,2943.53,806.88z M2931.11,767
					c-1.68,0-3.27-1.02-3.92-2.69c-2.46-6.35-5.18-12.74-8.08-18.97c-0.98-2.1-0.07-4.6,2.03-5.58c2.1-0.99,4.6-0.07,5.58,2.03
					c2.99,6.4,5.78,12.96,8.3,19.49c0.84,2.16-0.24,4.59-2.4,5.43C2932.13,766.91,2931.62,767,2931.11,767z M2913.49,729.12
					c-1.48,0-2.92-0.79-3.68-2.18c-3.33-6.05-6.86-12.01-10.53-17.73c-1.25-1.95-0.68-4.55,1.28-5.8c1.96-1.25,4.55-0.68,5.8,1.27
					c3.76,5.87,7.39,12,10.8,18.21c1.12,2.03,0.38,4.59-1.66,5.7C2914.86,728.96,2914.17,729.12,2913.49,729.12z M2890.98,693.94
					c-1.29,0-2.55-0.59-3.38-1.7c-4.08-5.52-8.39-10.96-12.8-16.15c-1.5-1.77-1.29-4.42,0.48-5.92c1.76-1.5,4.42-1.29,5.92,0.48
					c4.53,5.34,8.96,10.92,13.16,16.59c1.38,1.87,0.99,4.49-0.88,5.87C2892.72,693.67,2891.84,693.94,2890.98,693.94z
					 M2863.94,662.12c-1.09,0-2.19-0.42-3.01-1.27c-4.77-4.9-9.77-9.7-14.87-14.27c-1.73-1.55-1.87-4.2-0.32-5.93
					c1.55-1.73,4.2-1.87,5.93-0.32c5.23,4.69,10.37,9.62,15.28,14.66c1.62,1.66,1.58,4.32-0.08,5.94
					C2866.05,661.72,2865,662.12,2863.94,662.12z M2832.84,634.24c-0.9,0-1.81-0.29-2.58-0.89c-5.38-4.2-10.98-8.28-16.65-12.13
					c-1.92-1.3-2.42-3.91-1.12-5.83c1.3-1.92,3.92-2.42,5.83-1.12c5.83,3.95,11.6,8.14,17.12,12.46c1.82,1.43,2.15,4.07,0.72,5.89
					C2835.33,633.69,2834.09,634.24,2832.84,634.24z M2462.36,625.28c-1.32,0-2.62-0.62-3.44-1.78c-1.34-1.89-0.88-4.51,1.01-5.85
					c5.72-4.03,11.68-7.94,17.7-11.62c1.97-1.21,4.56-0.58,5.77,1.4c1.21,1.98,0.58,4.56-1.4,5.77
					c-5.87,3.58-11.66,7.38-17.24,11.31C2464.04,625.03,2463.19,625.28,2462.36,625.28z M2798.27,610.81
					c-0.72,0-1.45-0.18-2.11-0.57c-5.91-3.45-12.01-6.74-18.14-9.79c-2.07-1.03-2.92-3.55-1.89-5.63c1.03-2.07,3.54-2.93,5.63-1.89
					c6.3,3.13,12.57,6.52,18.64,10.06c2,1.17,2.68,3.74,1.51,5.74C2801.12,610.07,2799.72,610.81,2798.27,610.81z M2498.03,603.56
					c-1.52,0-2.98-0.82-3.73-2.26c-1.07-2.06-0.27-4.59,1.78-5.66c3.16-1.64,6.35-3.24,9.58-4.79c3.16-1.52,6.33-2.97,9.51-4.37
					c2.13-0.94,4.6,0.03,5.54,2.15c0.93,2.12-0.03,4.6-2.16,5.53c-3.1,1.36-6.19,2.78-9.26,4.25c-3.14,1.51-6.26,3.07-9.33,4.67
					C2499.35,603.41,2498.68,603.56,2498.03,603.56z M2760.88,592.23c-0.54,0-1.09-0.1-1.61-0.32c-6.31-2.63-12.8-5.08-19.29-7.28
					c-2.2-0.75-3.37-3.13-2.63-5.33c0.74-2.19,3.14-3.37,5.33-2.62c6.66,2.26,13.33,4.78,19.81,7.48c2.14,0.89,3.16,3.35,2.26,5.49
					C2764.08,591.25,2762.52,592.23,2760.88,592.23z M2536.28,586.75c-1.72,0-3.33-1.06-3.95-2.77c-0.79-2.18,0.34-4.59,2.52-5.38
					c6.62-2.39,13.4-4.59,20.15-6.54c2.23-0.65,4.56,0.65,5.19,2.87c0.64,2.23-0.64,4.55-2.87,5.19
					c-6.57,1.89-13.17,4.03-19.61,6.36C2537.23,586.67,2536.75,586.75,2536.28,586.75z M2721.33,578.79c-0.36,0-0.72-0.05-1.09-0.14
					c-6.61-1.76-13.37-3.32-20.08-4.64c-2.28-0.45-3.76-2.65-3.31-4.93c0.45-2.28,2.6-3.76,4.93-3.31
					c6.9,1.35,13.84,2.95,20.63,4.76c2.24,0.6,3.57,2.9,2.97,5.14C2724.88,577.55,2723.18,578.79,2721.33,578.79z M2576.42,575.21
					c-1.94,0-3.68-1.34-4.1-3.31c-0.49-2.27,0.96-4.5,3.22-4.99c6.88-1.48,13.89-2.75,20.85-3.76c2.27-0.33,4.42,1.26,4.76,3.55
					s-1.25,4.43-3.55,4.76c-6.77,0.98-13.59,2.21-20.28,3.66C2577.01,575.18,2576.71,575.21,2576.42,575.21z M2680.35,570.77
					c-0.18,0-0.35-0.01-0.53-0.03c-6.8-0.86-13.71-1.5-20.52-1.91c-2.32-0.14-4.08-2.12-3.94-4.44c0.14-2.31,2.12-4.1,4.44-3.94
					c7,0.41,14.1,1.07,21.09,1.96c2.3,0.29,3.93,2.39,3.64,4.69C2684.24,569.22,2682.43,570.77,2680.35,570.77z M2617.76,569.2
					c-2.17,0-4.01-1.67-4.18-3.88c-0.18-2.31,1.55-4.33,3.87-4.51c7.01-0.54,14.13-0.84,21.16-0.9h0.04c2.3,0,4.18,1.86,4.2,4.16
					c0.02,2.32-1.84,4.21-4.16,4.24c-6.85,0.06-13.78,0.36-20.59,0.88C2617.98,569.2,2617.87,569.2,2617.76,569.2z"/>
				<linearGradient id="SVGID_50_" gradientUnits="userSpaceOnUse" x1="2944.8167" y1="911.7943" x2="2954.4832" y2="911.7943">
					<stop  offset="0" style="stop-color:#4F52FF"/>
					<stop  offset="1" style="stop-color:#4042E2"/>
				</linearGradient>
				<path class="st64" d="M2949.02,921.2c-0.19,0-0.39-0.01-0.58-0.04c-2.3-0.32-3.9-2.44-3.58-4.74c0.47-3.42,0.89-6.84,1.25-10.27
					c0.24-2.3,2.23-3.97,4.61-3.74c2.3,0.24,3.98,2.31,3.74,4.61c-0.37,3.53-0.8,7.04-1.29,10.55
					C2952.88,919.68,2951.08,921.2,2949.02,921.2z"/>
			</g>
			<g>
				<linearGradient id="SVGID_51_" gradientUnits="userSpaceOnUse" x1="2369.2793" y1="875.705" x2="2908.6641" y2="875.705">
					<stop  offset="0" style="stop-color:#4F52FF"/>
					<stop  offset="1" style="stop-color:#4042E2"/>
				</linearGradient>
				<path class="st65" d="M2908.37,946.55c0.67-1.72,0.17-3.67-1.23-4.86l-40.11-33.96c3.44-24.3,3.02-49.32-1.62-74.15l38.54-35.68
					c1.35-1.25,1.76-3.22,1.02-4.91l-25.41-57.69c-0.74-1.69-2.47-2.71-4.31-2.56l-52.34,4.34c-15.18-20.18-33.36-37.38-53.61-51.25
					l2.02-52.51c0.07-1.84-1.03-3.52-2.75-4.19l-58.76-22.83c-1.72-0.67-3.67-0.17-4.86,1.23L2671,647.65
					c-24.3-3.44-49.32-3.02-74.15,1.62l-35.68-38.54c-1.25-1.35-3.22-1.76-4.91-1.02l-57.69,25.41c-1.69,0.74-2.72,2.47-2.56,4.31
					l4.34,52.34c-20.18,15.18-37.38,33.36-51.25,53.61l-52.51-2.02c-1.84-0.07-3.52,1.03-4.19,2.75l-22.83,58.76
					c-0.67,1.72-0.17,3.67,1.23,4.86l40.11,33.96c-3.44,24.3-3.02,49.32,1.62,74.15l-38.54,35.68c-1.35,1.25-1.76,3.22-1.02,4.91
					l25.41,57.69c0.74,1.69,2.47,2.71,4.31,2.56l52.34-4.34c15.18,20.18,33.36,37.38,53.61,51.25l-2.02,52.51
					c-0.07,1.84,1.03,3.52,2.75,4.19l58.76,22.83c1.72,0.67,3.67,0.17,4.86-1.23l33.96-40.11c24.3,3.44,49.32,3.02,74.15-1.62
					l35.68,38.54c1.25,1.35,3.22,1.76,4.91,1.02l57.69-25.41c1.69-0.74,2.72-2.47,2.56-4.31l-4.34-52.34
					c20.18-15.18,37.38-33.36,51.25-53.61l52.51,2.02c1.84,0.07,3.52-1.03,4.19-2.75L2908.37,946.55z"/>
				<path class="st1" d="M2639.09,935.88c-2.49,0-5.01-0.15-7.52-0.47c-15.95-1.98-30.18-10.05-40.06-22.72
					c-9.88-12.68-14.24-28.44-12.26-44.39c1.98-15.95,10.05-30.17,22.72-40.06c12.68-9.88,28.43-14.24,44.4-12.26
					c15.95,1.98,30.18,10.05,40.06,22.72l0,0c20.39,26.17,15.7,64.05-10.46,84.45C2665.29,931.48,2652.42,935.88,2639.09,935.88z
					 M2638.87,823.92c-11.47,0-22.54,3.79-31.73,10.95c-10.91,8.5-17.85,20.74-19.55,34.47c-1.7,13.72,2.05,27.29,10.55,38.19
					c8.5,10.91,20.74,17.85,34.47,19.55c13.74,1.71,27.29-2.05,38.19-10.55c10.91-8.5,17.85-20.74,19.55-34.47
					c1.7-13.72-2.05-27.29-10.55-38.19l0,0c-8.5-10.91-20.74-17.85-34.47-19.55C2643.17,824.06,2641.01,823.92,2638.87,823.92z"/>
				<path class="st1" d="M2637.91,1031.62c-60.11,0-117.53-34.85-143.27-93.3c-9-20.43-13.26-41.77-13.26-62.78
					c0.01-60.11,34.86-117.52,93.3-143.25c38.21-16.83,80.68-17.77,119.6-2.65c38.92,15.12,69.62,44.49,86.44,82.7l0,0
					c4.16,9.44,7.38,19.28,9.61,29.28c0.18,0.81,0.35,1.62,0.52,2.42c0.06,0.29,0.09,0.57,0.09,0.85c0,1.95-1.37,3.7-3.35,4.11
					c-2.26,0.47-4.49-1-4.96-3.27c-2.1-10.25-5.33-20.34-9.58-30l0,0c-15.03-34.12-41.75-60.8-75.67-75.72
					c-2.02-0.89-4.06-1.73-6.13-2.54c-36.82-14.31-77.01-13.42-113.17,2.51c-55.3,24.35-88.29,78.68-88.29,135.56
					c0,19.88,4.03,40.08,12.54,59.41c32.88,74.64,120.35,108.61,194.97,75.75c24.54-10.81,45.65-28.02,61.06-49.79
					c1.34-1.89,3.96-2.34,5.85-1c1.16,0.82,1.78,2.12,1.78,3.43c0,0.84-0.25,1.68-0.77,2.42c-16.28,23.01-38.59,41.21-64.52,52.63
					C2680.26,1027.36,2658.92,1031.62,2637.91,1031.62z"/>
			</g>
		</g>
	</g>
</g>
</svg>
