<?xml version="1.0" encoding="utf-8"?>
<!-- Generator: Adobe Illustrator 25.2.3, SVG Export Plug-In . SVG Version: 6.00 Build 0)  -->
<svg version="1.1" id="Layer_1" xmlns="http://www.w3.org/2000/svg" xmlns:xlink="http://www.w3.org/1999/xlink" x="0px" y="0px"
	 viewBox="0 0 430.9 294.8" style="enable-background:new 0 0 430.9 294.8;" xml:space="preserve">
<style type="text/css">
	.st0{fill:#ED9568;}
	.st1{fill:#20254D;}
	.st2{fill:#7D7FBD;}
	.st3{fill:#F7B68A;}
	.st4{fill:#51579A;}
	.st5{fill:#424242;}
	.st6{fill:none;stroke:#424242;stroke-width:2.31;stroke-miterlimit:10;}
	.st7{fill:none;stroke:#424242;stroke-width:4.62;stroke-miterlimit:10;}
	.st8{fill:none;stroke:#222957;stroke-width:1.155;stroke-miterlimit:10;}
	.st9{fill:none;stroke:#FFFFFF;stroke-width:1.155;stroke-miterlimit:10;}
	.st10{fill:#FAA61A;}
	.st11{fill:#44B97C;}
</style>
<path class="st0" d="M249.7,224.8c0,0-17,60.5-33.9,63c-17,2.4,7.3-89.7,9.7-98.5C227.9,180.4,249.7,224.8,249.7,224.8z"/>
<path class="st1" d="M204.5,52c0,0-11.3-20.2-6.4-30.7s21-24.2,36.3-12.9s23.4,7.3,30.7,3.2s17.6-9.6,40.4,0.8
	c26.5,12.2,15.3,55,2.3,65.5c-12.9,10.5,10.5,12.9,38,11.3c27.5-1.7,74.3,8.8,79.2,38.8c2.2,13.8,0,85.6-75.1,66.3
	s-117.1,39.5-164.8-35.6C168.8,132.9,223.8,72.2,204.5,52z"/>
<path class="st2" d="M278.8,125.5c0,0-17.8-4.1-34.7,10.5c-17,14.6-26.9,55.7-26.9,55.7l34.5,47.4l35.3-45.8
	C286.9,193.4,309.4,121.5,278.8,125.5z"/>
<path class="st3" d="M230.3,84.3c0,0-6.4,15.4-5.6,20.2s7.3,19.3,7.3,19.3L200.5,245c0,0-1.7,32.3,7.3,40.4c8.8,8.1,9.7,4.9,17-1.7
	c7.3-6.4,13.7-96.9,16.1-128.4c2.4-31.5,5.6-43.6,5.6-43.6s-8.1-4.9-11.3-6.4C231.9,103.7,231.1,86.8,230.3,84.3z"/>
<path class="st3" d="M240.8,82.7c2.4,1.7,24.2,22.6,23.4,46.8s-2.4,24.2-1.7,32.3s-2.4,33.1,16.1,46.8c5.2,3.9,12.9-40.4,20.2-63
	c5.4-16.9,16.1-17-7.3-38s-27.5-41.2-29-51.7C261,45.6,240.8,82.7,240.8,82.7z"/>
<path class="st4" d="M312.7,123.1c0,0,19.7-18.3,50.9,59.6c6.4,16.1,41.1,107.9,41.1,107.9H270.6c0,0-12.1-52.3-18.6-70
	s11.3-89.3,11.3-89.3l1.7,46.9C265,178.2,295.7,98.6,312.7,123.1z"/>
<path class="st3" d="M333.7,186.1l-29.9,97.7c0,0-4.1,9.7-27.5,2.4c-27.6-8.5-113.9-28.3-113.9-28.3s-4.1,4.1-9.7,11.3
	c-5.6,7.3-18.6,1.2-18.6,1.2l-8.1,6c0,0-7.5,4.5-10.9,4.5c-2.4,0,27-25.5,27-25.5l29.4-9.3l98.9,9.3l25.8-88L333.7,186.1z"/>
<path class="st5" d="M76.6,246.6c0.5,1.7,2.2,2.7,4,2.3l13.3-3.5c1.7-0.5,2.7-2.2,2.3-4L45.7,48.5c-0.5-1.7-2.2-2.7-4-2.3l-13.3,3.5
	c-1.7,0.5-2.7,2.2-2.3,4L76.6,246.6z"/>
<path class="st6" d="M28.3,51.4l50.5,192.9c0.5,1.7,2.2,2.7,4,2.3l13.2-3.5"/>
<path class="st7" d="M53.2,149.8c0,0-44.2,111.8-44.2,122.7c0,14.2,11.4,15.9,11.4,15.9h50.8"/>
<path class="st5" d="M85.8,290.6v-2.7c0-1.7,0.2-1.8,2-1.8h80c1.7,0,5.5,0,5.5,1.8v2.7H85.8z"/>
<path class="st0" d="M262.6,56.1c1.2,7.4,3.5,19.4,12.7,33.2c-0.4,18.4-4.6,35.1-11.5,48.3c0.1-2.3,0.2-5,0.3-8.1
	c0.8-24.2-21-45.2-23.4-46.8C240.8,82.7,261,45.6,262.6,56.1z"/>
<path class="st0" d="M226.6,94.2c1.7-5.1,3.7-9.9,3.7-9.9c0.8,2.4,1.7,19.3,4.9,21c3.2,1.7,11.3,6.4,11.3,6.4s-1.3,4.8-2.8,16.1
	C235,121.2,228.6,108.9,226.6,94.2z"/>
<path class="st3" d="M229.5,25.4c0,0-9.7,21.8-6.4,39.5c3.2,17.8,5.6,37.1,14.6,44.4c8.8,7.3,16.8-5.1,28.3-18.6
	c8.8-10.5,17.2-28.6,12.1-31.5c-11.3-6.4-8.8,7.3-10.5,8.8c-4.1,4.1-4.9-16.1-3.2-18.6C272.6,37.1,239.2,56.1,229.5,25.4z"/>
<path class="st8" d="M232.9,70.5c1.6,5.8,5.9,9.7,9.8,8.6s5.8-6.6,4.3-12.4s-5.9-9.7-9.8-8.6C233.3,59.1,231.4,64.6,232.9,70.5z"/>
<path class="st8" d="M215.2,70.5c1.6,5.8,5.9,9.7,9.8,8.6s5.8-6.6,4.3-12.4s-5.9-9.7-9.8-8.6C215.5,59.1,213.7,64.6,215.2,70.5z"/>
<path class="st9" d="M219.4,58c-3.9,1.1-5.8,6.6-4.3,12.4s5.9,9.7,9.8,8.6"/>
<line class="st8" x1="244.8" y1="66.6" x2="267.4" y2="58.5"/>
<path class="st0" d="M258,274.4c21.7,4,36.8,6.5,47.5,4l-1.7,5.5c0,0-4.1,9.7-27.5,2.4c-25.7-8-102.7-25.6-112.8-28
	C168.2,255.8,218.8,267,258,274.4z"/>
<g>
	
		<rect x="166.9" y="256.3" transform="matrix(0.2363 -0.9717 0.9717 0.2363 -111.8769 374.3632)" class="st10" width="30.7" height="4.1"/>
</g>
<g>
	
		<rect x="174.8" y="257.6" transform="matrix(0.1304 -0.9915 0.9915 0.1304 -91.8984 414.4596)" class="st11" width="31" height="4.1"/>
</g>
<path class="st0" d="M325.8,211.8c-11.8-4.6-28.2-10-39.4-9.7l7.3-24.8l38.7,13.2L325.8,211.8z"/>
<path class="st2" d="M366.7,217.5l-83.9-31.5c0,0,0.8-51.7,11.3-71c5.3-9.9,18.8-9.1,40.4,16.1C353,152.9,366.7,217.5,366.7,217.5z"
	/>
</svg>
