<?xml version="1.0" encoding="utf-8"?>
<!-- Generator: Adobe Illustrator 25.2.3, SVG Export Plug-In . SVG Version: 6.00 Build 0)  -->
<svg version="1.1" id="Layer_1" xmlns="http://www.w3.org/2000/svg" xmlns:xlink="http://www.w3.org/1999/xlink" x="0px" y="0px"
	 viewBox="0 0 256 256" style="enable-background:new 0 0 256 256;" xml:space="preserve">
<style type="text/css">
	.st0{fill:#2888A8;}
	.st1{fill:#47A0BD;}
	.st2{fill:#09607D;}
	.st3{fill:#DEFEF2;}
	.st4{fill:#00B066;}
</style>
<g transform="translate(1.4065934065934016 1.4065934065934016) scale(2.81 2.81)">
	<path class="st0" d="M52.1,72.9c-12.5,0-22.6-10.2-22.6-22.6s10.2-22.6,22.6-22.6c0.7,0,1.1,0,1.4,0l0.8-17.5H20.6V80h33.6
		l-0.8-7.2C53.1,72.9,52.8,72.9,52.1,72.9z"/>
	<rect x="29.8" y="10.1" class="st1" width="14.6" height="3.7"/>
	<path class="st2" d="M53.4,72.8v5c0,0.5-0.4,0.9-0.9,0.9H22.8c-0.5,0-0.9-0.4-0.9-0.9v-66c0-0.3,0.3-0.6,0.6-0.6h4.7
		c0.3,1.9,1.7,3.4,3.3,3.4h14.3c1.6,0,3-1.5,3.3-3.4h4.4c0.5,0,0.9,0.4,0.9,0.9v15.5c1.1,0.1,2.2,0.2,3.3,0.4V12.2
		c0-2.3-1.9-4.2-4.2-4.2h-30c-2.1,0-3.9,1.7-3.9,3.9v66c0,2.3,1.9,4.2,4.2,4.2h29.7c2.3,0,4.2-1.9,4.2-4.2v-5.4
		C55.6,72.6,54.5,72.8,53.4,72.8z M42.5,11.5c0.3,0,0.6,0.3,0.6,0.6s-0.3,0.6-0.6,0.6s-0.6-0.3-0.6-0.6S42.1,11.5,42.5,11.5z
		 M32.2,11.5H40c0.3,0,0.6,0.3,0.6,0.6s-0.3,0.6-0.6,0.6h-7.8c-0.3,0-0.6-0.3-0.6-0.6S31.9,11.5,32.2,11.5z"/>
	<circle class="st3" cx="52.1" cy="50.2" r="17.3"/>
	<circle class="st4" cx="52.1" cy="50.2" r="6.2"/>
	<path class="st4" d="M52.1,30.9c-10.7,0-19.3,8.7-19.3,19.3s8.7,19.3,19.3,19.3s19.3-8.7,19.3-19.3C71.4,39.6,62.7,30.9,52.1,30.9z
		 M63.2,52.1c0,0.7-0.6,1.3-1.3,1.3h-1.2c-0.3,0-0.4,0.3-0.2,0.5l0.8,0.8c0.5,0.5,0.5,1.3,0,1.8l-2.9,2.9c-0.5,0.5-1.3,0.5-1.8,0
		l-0.8-0.8c-0.2-0.2-0.5-0.1-0.5,0.2v1.2c0,0.7-0.6,1.3-1.3,1.3H50c-0.7,0-1.3-0.6-1.3-1.3v-1.2c0-0.3-0.3-0.4-0.5-0.2l-0.8,0.8
		c-0.5,0.5-1.3,0.5-1.8,0l-2.9-2.9c-0.5-0.5-0.5-1.3,0-1.8l0.8-0.8c0.2-0.2,0.1-0.5-0.2-0.5h-1.2c-0.7,0-1.3-0.6-1.3-1.3V48
		c0-0.7,0.6-1.3,1.3-1.3h1.2c0.3,0,0.4-0.3,0.2-0.5l-0.8-0.8c-0.5-0.5-0.5-1.3,0-1.8l2.9-2.9c0.5-0.5,1.3-0.5,1.8,0l0.8,0.8
		c0.2,0.2,0.5,0.1,0.5-0.2v-1.2c0-0.7,0.6-1.3,1.3-1.3h4.1c0.7,0,1.3,0.6,1.3,1.3v1.2c0,0.3,0.3,0.4,0.5,0.2l0.8-0.8
		c0.5-0.5,1.3-0.5,1.8,0l2.9,2.9c0.5,0.5,0.5,1.3,0,1.8l-0.8,0.8c-0.2,0.2-0.1,0.5,0.2,0.5H62c0.7,0,1.3,0.6,1.3,1.3V52.1z"/>
</g>
</svg>
