<?xml version="1.0" encoding="utf-8"?>
<!-- Generator: Adobe Illustrator 25.2.3, SVG Export Plug-In . SVG Version: 6.00 Build 0)  -->
<svg version="1.1" id="Layer_1" xmlns="http://www.w3.org/2000/svg" xmlns:xlink="http://www.w3.org/1999/xlink" x="0px" y="0px"
	 viewBox="0 0 502.6 502.6" style="enable-background:new 0 0 502.6 502.6;" xml:space="preserve">
<style type="text/css">
	.st0{fill:#F2F2F2;}
	.st1{fill:#CDD6E0;}
	.st2{fill:#B8CAD8;}
	.st3{fill:#40596B;}
	.st4{fill:#84DBFF;}
	.st5{fill:#334A5E;}
	.st6{fill:#4CDBC4;}
	.st7{fill:#FF7058;}
	.st8{fill:#FFD15C;}
</style>
<path class="st0" d="M438.7,330.1H63.1c-7.5,0-13.4,5.9-13.4,13.4v0.8c0,7.5,5.9,13.4,13.4,13.4h376.5c7.5,0,13.4-5.9,13.4-13.4
	v-0.8C452.1,336,446.2,330.1,438.7,330.1z"/>
<path class="st1" d="M419.4,356.9l-17.6,12.6l-11.7,8.4c-3.4,1.7-6.7,3.4-10.1,3.4H121.8c-3.4,0-7.5-0.8-10.1-3.4l-11.7-8.4
	l-17.6-12.6H419.4z"/>
<polygon class="st2" points="419.4,356.9 401.8,370.4 100,370.4 82.3,356.9 "/>
<path class="st3" d="M417.7,82.8H84c-9.2,0-16.8,7.5-16.8,16.8v230.6h368.1V99.5C434.5,90.3,427,82.8,417.7,82.8z"/>
<rect x="88.6" y="104.1" class="st4" width="324.5" height="204.6"/>
<path class="st2" d="M263.5,340.2h-25.2c-2.5,0-4.2,1.7-4.2,4.2c0,2.5,1.7,4.2,4.2,4.2h25.2c2.5,0,4.2-1.7,4.2-4.2
	C266.8,341.9,265.1,340.2,263.5,340.2z"/>
<path class="st5" d="M435.3,161.6H298.7c-9.2,0-16.8,7.5-16.8,16.8v224.7c0,9.2,7.5,16.8,16.8,16.8h136.7c9.2,0,16.8-7.5,16.8-16.8
	V178.4C452.1,169.1,444.6,161.6,435.3,161.6z"/>
<rect x="295.5" y="192.7" class="st0" width="143.4" height="187.8"/>
<g>
	<path class="st6" d="M378.3,393.8h-26c-3.4,0-5.9,2.5-5.9,5.9c0,3.4,2.5,5.9,5.9,5.9h26c3.4,0,5.9-2.5,5.9-5.9
		C385,396.4,381.7,393.8,378.3,393.8z"/>
	<path class="st6" d="M388.4,175h-42.8c-1.7,0-2.5,0.8-2.5,2.5s0.8,2.5,2.5,2.5h42.8c1.7,0,2.5-0.8,2.5-2.5
		C390.9,175.8,390.1,175,388.4,175z"/>
</g>
<polygon class="st7" points="304.5,200.2 260.1,200.2 260.1,185.1 223.2,216.1 260.1,247.9 260.1,232.9 304.5,232.9 "/>
<polygon class="st8" points="272.7,275.6 318,275.6 318,290.7 354.9,259.7 318,227.8 318,242.9 272.7,242.9 "/>
</svg>
