<?xml version="1.0" encoding="utf-8"?>
<!-- Generator: Adobe Illustrator 25.2.3, SVG Export Plug-In . SVG Version: 6.00 Build 0)  -->
<svg version="1.1" id="Layer_1" xmlns="http://www.w3.org/2000/svg" xmlns:xlink="http://www.w3.org/1999/xlink" x="0px" y="0px"
	 viewBox="0 0 256 256" style="enable-background:new 0 0 256 256;" xml:space="preserve">
<style type="text/css">
	.st0{fill:#727171;}
	.st1{fill:#DDD4D4;}
	.st2{fill:#CE2700;}
	.st3{fill:#EEB400;}
	.st4{fill:#FFFFFF;}
</style>
<g transform="translate(1.4065934065934016 1.4065934065934016) scale(2.81 2.81)">
	<polyline class="st0" points="54.5,55.4 53.7,66 41.5,82.1 40,66 	"/>
	<polyline class="st0" points="34,34.6 23.1,35.5 7.1,47.6 22.8,49.2 	"/>
	<path class="st1" d="M22.8,49.2c3.3-5.5,7.8-11.2,13.3-16.7c14.7-14.7,26.4-17.7,37.6-16.8c0.9,11.2-2.1,22.9-16.8,37.6
		c-5.5,5.5-11.3,10-16.7,13.3L22.8,49.2z"/>
	<path class="st2" d="M48,61c-2.7,2-5.3,3.9-8,5.4L22.8,49.2c1.6-2.6,3.4-5.3,5.4-8L48,61z"/>
	<path class="st2" d="M68.8,38.1L51.2,20.5c8.1-4.5,15.4-5.5,22.5-4.9C74.3,22.7,73.3,30,68.8,38.1z"/>
	<path class="st3" d="M31.5,57.8c-1.9-1.9-5.7-1.3-8.5,1.3c-0.8,0.8-1.3,1.7-1.8,2.5l0,0c-0.8,1.7-2.7,6.5-4.5,10.9
		c4.4-1.8,9.2-3.7,10.9-4.5l0,0c0.9-0.4,1.8-1,2.5-1.8C32.8,63.6,33.4,59.7,31.5,57.8z"/>
	<path class="st0" d="M55.8,33.4c-2.7-2.7-7-2.7-9.7,0c-2.7,2.7-2.7,7,0,9.7s7,2.7,9.7,0C58.5,40.5,58.5,36.1,55.8,33.4z"/>
	<path class="st4" d="M53.6,41c-1.5,1.5-3.9,1.5-5.4,0s-1.5-3.9,0-5.4s3.9-1.5,5.4,0C55.1,37.2,55.1,39.5,53.6,41z"/>
</g>
</svg>
